<?xml version="1.0" encoding="UTF-8"?>
<!DOCTYPE svg PUBLIC "-//W3C//DTD SVG 1.1//EN" "http://www.w3.org/Graphics/SVG/1.1/DTD/svg11.dtd">
<svg xmlns="http://www.w3.org/2000/svg" version="1.1" width="463px" height="766px" style="shape-rendering:geometricPrecision; text-rendering:geometricPrecision; image-rendering:optimizeQuality; fill-rule:evenodd; clip-rule:evenodd" xmlns:xlink="http://www.w3.org/1999/xlink">
<g><path style="opacity:0.644" fill="#eee4e2" d="M 235.5,15.5 C 227.5,15.5 219.5,15.5 211.5,15.5C 216.361,14.5278 221.361,13.5278 226.5,12.5C 229.866,12.7591 232.866,13.7591 235.5,15.5 Z"/></g>
<g><path style="opacity:0.41" fill="#cec4c3" d="M 211.5,15.5 C 199.463,17.5062 187.463,20.1729 175.5,23.5C 186.794,18.1722 198.794,15.5055 211.5,15.5 Z"/></g>
<g><path style="opacity:1" fill="#553634" d="M 211.5,15.5 C 219.5,15.5 227.5,15.5 235.5,15.5C 235.833,15.5 236.167,15.5 236.5,15.5C 244.337,17.1256 252.337,18.6256 260.5,20C 272.558,24.3525 284.891,27.6859 297.5,30C 303.681,30.8192 309.681,30.6525 315.5,29.5C 319.387,29.3541 323.054,28.6874 326.5,27.5C 326.833,27.5 327.167,27.5 327.5,27.5C 331.382,26.1971 335.382,25.5304 339.5,25.5C 339.509,27.3084 339.009,28.9751 338,30.5C 331.354,36.7398 323.521,40.7398 314.5,42.5C 328.813,54.8962 345.48,62.3962 364.5,65C 372.846,65.2901 381.179,65.2901 389.5,65C 390.517,66.0495 390.684,67.2161 390,68.5C 381.001,75.3356 370.834,79.3356 359.5,80.5C 369.203,93.7082 381.203,104.208 395.5,112C 401.448,114.15 407.448,115.984 413.5,117.5C 414.833,118.167 414.833,118.833 413.5,119.5C 410.739,121.212 407.739,122.378 404.5,123C 397.5,123.833 390.5,124.667 383.5,125.5C 387.255,132.486 388.255,139.819 386.5,147.5C 385.311,148.429 383.978,148.762 382.5,148.5C 381.791,147.596 380.791,147.263 379.5,147.5C 379.739,153.423 380.739,159.09 382.5,164.5C 384.257,173.352 381.59,180.852 374.5,187C 373.255,187.791 371.922,188.291 370.5,188.5C 369.79,184.653 368.624,180.986 367,177.5C 362.564,173.064 358.897,168.064 356,162.5C 354.2,160.855 352.2,159.522 350,158.5C 349.601,158.728 349.435,159.062 349.5,159.5C 345.637,151.12 341.47,142.787 337,134.5C 332.089,128.345 327.423,122.011 323,115.5C 321.259,114.242 319.426,113.242 317.5,112.5C 318.303,111.577 318.47,110.577 318,109.5C 316.082,108.458 314.249,107.292 312.5,106C 287.951,106.639 263.451,105.806 239,103.5C 233.808,104.603 232.308,107.603 234.5,112.5C 240.788,113.441 247.121,114.108 253.5,114.5C 250.036,117.738 246.036,120.238 241.5,122C 224.526,127.666 207.526,127.833 190.5,122.5C 189.833,122.833 189.167,123.167 188.5,123.5C 189.273,126.431 190.273,129.264 191.5,132C 197.26,132.564 202.927,132.064 208.5,130.5C 208.833,130.667 209.167,130.833 209.5,131C 205.217,135.819 199.884,139.152 193.5,141C 188.27,142.546 182.937,143.38 177.5,143.5C 180.021,168.062 175.354,191.062 163.5,212.5C 158.811,219.355 152.978,225.022 146,229.5C 145.616,231.197 145.782,232.863 146.5,234.5C 145.163,233.685 144.163,232.518 143.5,231C 137.294,230.901 131.294,230.067 125.5,228.5C 125.433,227.041 125.766,225.708 126.5,224.5C 129.239,221.616 132.239,218.949 135.5,216.5C 138.021,211.821 139.021,206.821 138.5,201.5C 137.07,201.421 135.736,201.754 134.5,202.5C 132.208,204.657 129.875,206.824 127.5,209C 112.059,216.437 95.726,219.27 78.5,217.5C 78.5,220.167 78.5,222.833 78.5,225.5C 78.1667,225.5 77.8333,225.5 77.5,225.5C 77.7989,223.396 77.4656,221.396 76.5,219.5C 70.5725,226.797 62.9058,230.297 53.5,230C 52.9781,229.439 52.6448,228.772 52.5,228C 56.8818,225.787 59.5485,222.287 60.5,217.5C 59.4881,213.295 57.9881,209.295 56,205.5C 54,198.167 54,190.833 56,183.5C 59.1301,174.648 61.7968,165.648 64,156.5C 64.8236,153.118 64.657,149.784 63.5,146.5C 55.2726,152.817 45.9393,155.483 35.5,154.5C 35.3433,153.127 35.51,151.793 36,150.5C 38.3256,148.934 40.4922,147.268 42.5,145.5C 43.552,145.649 44.552,145.483 45.5,145C 55.6922,134.449 62.0255,121.949 64.5,107.5C 68.4701,102.916 71.9701,97.9164 75,92.5C 84.3941,81.055 96.5607,75.3883 111.5,75.5C 109.934,67.3612 110.434,59.3612 113,51.5C 116.572,46.0302 119.905,40.3635 123,34.5C 128.145,29.6995 133.312,25.0328 138.5,20.5C 140.167,20.5 141.833,20.5 143.5,20.5C 143.074,25.6901 141.241,30.3568 138,34.5C 136.665,38.5115 135.331,42.5115 134,46.5C 133.219,47.9437 133.386,49.277 134.5,50.5C 144.069,41.2579 154.736,33.5912 166.5,27.5C 169.166,27.067 171.832,26.567 174.5,26C 175.252,25.3292 175.586,24.4959 175.5,23.5C 187.463,20.1729 199.463,17.5062 211.5,15.5 Z"/></g>
<g><path style="opacity:0.251" fill="#c6bcba" d="M 236.5,15.5 C 244.278,15.2871 251.945,16.1205 259.5,18C 275.723,23.9434 292.39,27.7768 309.5,29.5C 311.5,29.5 313.5,29.5 315.5,29.5C 309.681,30.6525 303.681,30.8192 297.5,30C 284.891,27.6859 272.558,24.3525 260.5,20C 252.337,18.6256 244.337,17.1256 236.5,15.5 Z"/></g>
<g><path style="opacity:1" fill="#ab9898" d="M 175.5,23.5 C 175.586,24.4959 175.252,25.3292 174.5,26C 171.832,26.567 169.166,27.067 166.5,27.5C 169.057,25.3926 172.057,24.0592 175.5,23.5 Z"/></g>
<g><path style="opacity:0.588" fill="#e1d5d2" d="M 326.5,27.5 C 323.054,28.6874 319.387,29.3541 315.5,29.5C 313.5,29.5 311.5,29.5 309.5,29.5C 314.973,28.3835 320.64,27.7168 326.5,27.5 Z"/></g>
<g><path style="opacity:0.106" fill="#ccbdbc" d="M 138.5,20.5 C 140.628,19.3709 142.961,19.2042 145.5,20C 146.059,20.7247 146.392,21.5581 146.5,22.5C 143.509,29.1265 140.509,35.7932 137.5,42.5C 137.808,43.3081 138.308,43.9747 139,44.5C 146.876,36.6501 156.043,30.9834 166.5,27.5C 154.736,33.5912 144.069,41.2579 134.5,50.5C 133.386,49.277 133.219,47.9437 134,46.5C 135.331,42.5115 136.665,38.5115 138,34.5C 141.241,30.3568 143.074,25.6901 143.5,20.5C 141.833,20.5 140.167,20.5 138.5,20.5 Z"/></g>
<g><path style="opacity:0.467" fill="#cbbebb" d="M 138.5,20.5 C 133.312,25.0328 128.145,29.6995 123,34.5C 119.905,40.3635 116.572,46.0302 113,51.5C 110.434,59.3612 109.934,67.3612 111.5,75.5C 96.5607,75.3883 84.3941,81.055 75,92.5C 71.9701,97.9164 68.4701,102.916 64.5,107.5C 71.5529,86.7096 86.5529,75.7096 109.5,74.5C 107.667,50.1583 117.333,32.1583 138.5,20.5 Z"/></g>
<g><path style="opacity:1" fill="#8a5f5a" d="M 259.5,49.5 C 267.336,48.1726 274.169,50.1726 280,55.5C 281.221,62.1162 278.388,65.1162 271.5,64.5C 262.735,64.2317 258.235,59.8984 258,51.5C 258.717,50.9558 259.217,50.2891 259.5,49.5 Z"/></g>
<g><path style="opacity:1" fill="#875d5a" d="M 227.5,57.5 C 235.167,56.024 239,59.024 239,66.5C 235.384,70.3226 231.551,70.4893 227.5,67C 224.888,63.8359 224.888,60.6693 227.5,57.5 Z"/></g>
<g><path style="opacity:1" fill="#855b5b" d="M 298.5,61.5 C 301.649,61.2114 304.649,61.7114 307.5,63C 309.312,69.1895 306.978,71.5228 300.5,70C 297.469,67.7376 296.802,64.9043 298.5,61.5 Z"/></g>
<g><path style="opacity:0.255" fill="#cfc3c1" d="M 413.5,117.5 C 407.448,115.984 401.448,114.15 395.5,112C 381.203,104.208 369.203,93.7082 359.5,80.5C 370.834,79.3356 381.001,75.3356 390,68.5C 390.684,67.2161 390.517,66.0495 389.5,65C 381.179,65.2901 372.846,65.2901 364.5,65C 345.48,62.3962 328.813,54.8962 314.5,42.5C 323.521,40.7398 331.354,36.7398 338,30.5C 339.009,28.9751 339.509,27.3084 339.5,25.5C 335.382,25.5304 331.382,26.1971 327.5,27.5C 330.103,25.3383 333.27,24.005 337,23.5C 339.376,23.5428 340.876,24.7095 341.5,27C 340.722,29.3899 339.555,31.5566 338,33.5C 331.91,38.3173 325.077,41.8173 317.5,44C 318.966,44.6355 320.3,45.4688 321.5,46.5C 322.086,46.2907 322.586,45.9574 323,45.5C 325.032,49.0487 327.866,50.5487 331.5,50C 330.542,51.1475 330.875,52.1475 332.5,53C 351.05,62.3147 370.717,65.8147 391.5,63.5C 392.595,66.5591 391.928,69.3924 389.5,72C 386.339,73.4131 383.339,75.0797 380.5,77C 374.377,78.4582 368.377,80.1249 362.5,82C 372.003,93.1749 383.003,102.508 395.5,110C 401.003,112.169 406.669,113.835 412.5,115C 413.252,115.671 413.586,116.504 413.5,117.5 Z"/></g>
<g><path style="opacity:0.322" fill="#6c494d" d="M 385.5,89.5 C 385.56,88.9569 385.893,88.6236 386.5,88.5C 390.148,91.2857 391.981,94.9523 392,99.5C 389.05,96.5793 386.883,93.2459 385.5,89.5 Z"/></g>
<g><path style="opacity:1" fill="#48302f" d="M 317.5,112.5 C 296.226,114.345 274.893,115.012 253.5,114.5C 247.121,114.108 240.788,113.441 234.5,112.5C 232.308,107.603 233.808,104.603 239,103.5C 263.451,105.806 287.951,106.639 312.5,106C 314.249,107.292 316.082,108.458 318,109.5C 318.47,110.577 318.303,111.577 317.5,112.5 Z"/></g>
<g><path style="opacity:0.999" fill="#f8d4c6" d="M 317.5,112.5 C 319.426,113.242 321.259,114.242 323,115.5C 327.423,122.011 332.089,128.345 337,134.5C 341.47,142.787 345.637,151.12 349.5,159.5C 349.685,161.196 350.519,162.529 352,163.5C 351.994,170.482 353.994,176.816 358,182.5C 358.495,184.473 358.662,186.473 358.5,188.5C 357.044,207.779 355.71,227.113 354.5,246.5C 353.542,251.658 352.875,256.991 352.5,262.5C 353.833,262.5 355.167,262.5 356.5,262.5C 353.722,267.335 351.889,272.668 351,278.5C 345.821,294.642 338.488,309.642 329,323.5C 323.655,328.346 318.488,333.346 313.5,338.5C 309.947,341.444 305.947,343.61 301.5,345C 299.341,346.059 297.674,347.559 296.5,349.5C 295.399,348.402 294.066,348.235 292.5,349C 283.607,355.18 273.774,358.68 263,359.5C 252.125,359.046 241.292,358.213 230.5,357C 221.735,353.452 213.068,349.619 204.5,345.5C 203.713,343.896 202.38,343.229 200.5,343.5C 196.325,341.161 192.325,338.494 188.5,335.5C 182.167,328.833 175.833,322.167 169.5,315.5C 166.093,308.72 162.76,301.887 159.5,295C 129.341,302.614 104.841,294.114 86,269.5C 84.9914,267.975 84.4914,266.308 84.5,264.5C 85.8571,265.59 86.8571,266.924 87.5,268.5C 92.973,276.139 99.6397,282.639 107.5,288C 111.803,290.743 116.47,292.577 121.5,293.5C 126.778,295.93 132.444,296.93 138.5,296.5C 141.833,296.333 145.167,296.167 148.5,296C 151.312,294.451 154.312,293.618 157.5,293.5C 156.926,289.675 155.759,286.009 154,282.5C 149.437,277.374 147.104,271.374 147,264.5C 146.617,263.944 146.117,263.611 145.5,263.5C 145.443,262.391 145.11,261.391 144.5,260.5C 144.611,259.883 144.944,259.383 145.5,259C 143.808,257.599 143.141,255.766 143.5,253.5C 141.436,253.313 139.436,252.813 137.5,252C 138.308,250.294 139.641,249.461 141.5,249.5C 142.585,251.587 144.251,252.92 146.5,253.5C 146.611,254.117 146.944,254.617 147.5,255C 149.81,255.497 152.143,255.663 154.5,255.5C 152.233,248.368 149.566,241.368 146.5,234.5C 145.782,232.863 145.616,231.197 146,229.5C 152.978,225.022 158.811,219.355 163.5,212.5C 175.354,191.062 180.021,168.062 177.5,143.5C 182.937,143.38 188.27,142.546 193.5,141C 199.884,139.152 205.217,135.819 209.5,131C 209.167,130.833 208.833,130.667 208.5,130.5C 202.927,132.064 197.26,132.564 191.5,132C 190.273,129.264 189.273,126.431 188.5,123.5C 189.167,123.167 189.833,122.833 190.5,122.5C 207.526,127.833 224.526,127.666 241.5,122C 246.036,120.238 250.036,117.738 253.5,114.5C 274.893,115.012 296.226,114.345 317.5,112.5 Z"/></g>
<g><path style="opacity:1" fill="#8b6059" d="M 147.5,116.5 C 154.673,114.839 157.173,117.506 155,124.5C 152.839,128.124 149.672,129.291 145.5,128C 143.556,125.847 143.056,123.347 144,120.5C 145.376,119.295 146.542,117.962 147.5,116.5 Z"/></g>
<g><path style="opacity:1" fill="#cfc4c2" d="M 413.5,119.5 C 412.923,122.645 410.923,124.145 407.5,124C 400.563,125.288 393.563,125.788 386.5,125.5C 389.296,132.905 390.129,140.572 389,148.5C 387.211,150.229 385.044,150.896 382.5,150.5C 382.5,152.5 382.5,154.5 382.5,156.5C 381.734,154.316 381.067,151.982 380.5,149.5C 380.957,148.702 381.624,148.369 382.5,148.5C 383.978,148.762 385.311,148.429 386.5,147.5C 388.255,139.819 387.255,132.486 383.5,125.5C 390.5,124.667 397.5,123.833 404.5,123C 407.739,122.378 410.739,121.212 413.5,119.5 Z"/></g>
<g><path style="opacity:0.737" fill="#d0c2bf" d="M 64.5,107.5 C 62.0255,121.949 55.6922,134.449 45.5,145C 44.552,145.483 43.552,145.649 42.5,145.5C 45.1235,142.409 47.9569,139.409 51,136.5C 54.7237,128.662 58.057,120.662 61,112.5C 62.0298,110.654 63.1964,108.987 64.5,107.5 Z"/></g>
<g><path style="opacity:0.525" fill="#ddd0cd" d="M 42.5,145.5 C 40.4922,147.268 38.3256,148.934 36,150.5C 35.51,151.793 35.3433,153.127 35.5,154.5C 33.6558,153.796 33.1558,152.463 34,150.5C 36.3575,147.909 39.1908,146.242 42.5,145.5 Z"/></g>
<g><path style="opacity:1" fill="#887674" d="M 382.5,148.5 C 381.624,148.369 380.957,148.702 380.5,149.5C 381.067,151.982 381.734,154.316 382.5,156.5C 382.5,157.167 382.5,157.833 382.5,158.5C 382.5,160.5 382.5,162.5 382.5,164.5C 380.739,159.09 379.739,153.423 379.5,147.5C 380.791,147.263 381.791,147.596 382.5,148.5 Z"/></g>
<g><path style="opacity:0.039" fill="#c5bbb6" d="M 77.5,225.5 C 77.1667,225.5 76.8333,225.5 76.5,225.5C 75.0119,222.814 74.3453,223.147 74.5,226.5C 68.4835,229.259 62.1502,231.259 55.5,232.5C 52.4547,232.604 50.7881,231.104 50.5,228C 52.6003,225.9 54.7669,223.733 57,221.5C 57.6377,220.391 58.1377,219.225 58.5,218C 53.1779,208.159 51.3446,197.659 53,186.5C 55.9543,175.641 59.2877,164.975 63,154.5C 63.7975,152.741 63.6309,151.074 62.5,149.5C 54.0721,154.921 45.0721,156.587 35.5,154.5C 45.9393,155.483 55.2726,152.817 63.5,146.5C 64.657,149.784 64.8236,153.118 64,156.5C 61.7968,165.648 59.1301,174.648 56,183.5C 54,190.833 54,198.167 56,205.5C 57.9881,209.295 59.4881,213.295 60.5,217.5C 59.5485,222.287 56.8818,225.787 52.5,228C 52.6448,228.772 52.9781,229.439 53.5,230C 62.9058,230.297 70.5725,226.797 76.5,219.5C 77.4656,221.396 77.7989,223.396 77.5,225.5 Z"/></g>
<g><path style="opacity:0.735" fill="#c1aeb0" d="M 382.5,158.5 C 383.181,160.158 384.015,161.825 385,163.5C 385.136,167.094 385.302,170.594 385.5,174C 383.635,176.734 382.301,179.734 381.5,183C 379.058,185.724 376.391,188.224 373.5,190.5C 372.576,194.318 370.909,197.652 368.5,200.5C 369.04,196.358 369.706,192.358 370.5,188.5C 371.922,188.291 373.255,187.791 374.5,187C 381.59,180.852 384.257,173.352 382.5,164.5C 382.5,162.5 382.5,160.5 382.5,158.5 Z"/></g>
<g><path style="opacity:1" fill="#453531" d="M 316.5,170.5 C 325.774,170.283 334.774,171.617 343.5,174.5C 344.167,177.5 344.833,180.5 345.5,183.5C 333.371,180.917 321.037,179.75 308.5,180C 305.976,178.117 304.642,175.617 304.5,172.5C 308.733,172.461 312.733,171.795 316.5,170.5 Z"/></g>
<g><path style="opacity:1" fill="#705b53" d="M 250.5,176.5 C 244.155,176.653 237.822,176.986 231.5,177.5C 237.776,175.56 244.109,175.226 250.5,176.5 Z"/></g>
<g><path style="opacity:1" fill="#252f35" d="M 370.5,188.5 C 369.706,192.358 369.04,196.358 368.5,200.5C 366.362,200.703 364.695,201.703 363.5,203.5C 362.358,198.214 360.691,193.214 358.5,188.5C 358.662,186.473 358.495,184.473 358,182.5C 353.994,176.816 351.994,170.482 352,163.5C 350.519,162.529 349.685,161.196 349.5,159.5C 349.435,159.062 349.601,158.728 350,158.5C 352.2,159.522 354.2,160.855 356,162.5C 358.897,168.064 362.564,173.064 367,177.5C 368.624,180.986 369.79,184.653 370.5,188.5 Z"/></g>
<g><path style="opacity:1" fill="#402f2c" d="M 250.5,176.5 C 252.766,178.193 253.1,180.36 251.5,183C 242.651,183.77 233.985,185.436 225.5,188C 215.184,191.377 205.184,195.21 195.5,199.5C 194.137,193.41 196.137,188.91 201.5,186C 211.021,181.437 221.021,178.604 231.5,177.5C 237.822,176.986 244.155,176.653 250.5,176.5 Z"/></g>
<g><path style="opacity:1" fill="#6c4142" d="M 358.5,188.5 C 360.691,193.214 362.358,198.214 363.5,203.5C 364.695,201.703 366.362,200.703 368.5,200.5C 367.673,204.439 367.006,208.439 366.5,212.5C 363.94,226.731 360.106,240.731 355,254.5C 354.503,251.854 354.336,249.187 354.5,246.5C 355.71,227.113 357.044,207.779 358.5,188.5 Z"/></g>
<g><path style="opacity:1" fill="#24343a" d="M 320.5,204.5 C 329.533,204.284 338.533,204.617 347.5,205.5C 347.5,207.167 347.5,208.833 347.5,210.5C 339.515,209.609 331.515,209.442 323.5,210C 317.723,212.252 311.723,213.752 305.5,214.5C 302.025,213.714 301.692,212.214 304.5,210C 309.846,207.83 315.179,205.997 320.5,204.5 Z"/></g>
<g><path style="opacity:1" fill="#1b2b32" d="M 126.5,224.5 C 125.295,223.328 125.295,221.995 126.5,220.5C 126,220.167 125.5,219.833 125,219.5C 123.327,221.634 121.16,223.134 118.5,224C 112.665,223.719 106.998,223.885 101.5,224.5C 94.8014,226.182 89.4681,229.849 85.5,235.5C 83.7259,236.881 82.2259,236.548 81,234.5C 79.5699,231.647 78.7366,228.647 78.5,225.5C 78.5,222.833 78.5,220.167 78.5,217.5C 95.726,219.27 112.059,216.437 127.5,209C 129.875,206.824 132.208,204.657 134.5,202.5C 135.736,201.754 137.07,201.421 138.5,201.5C 139.021,206.821 138.021,211.821 135.5,216.5C 132.239,218.949 129.239,221.616 126.5,224.5 Z"/></g>
<g><path style="opacity:1" fill="#233036" d="M 237.5,216.5 C 240.518,216.335 243.518,216.502 246.5,217C 247.991,219.022 247.658,220.688 245.5,222C 238.821,222.547 232.155,223.213 225.5,224C 217.09,226.351 208.757,228.851 200.5,231.5C 200.5,229.5 200.5,227.5 200.5,225.5C 212.601,221.057 224.935,218.057 237.5,216.5 Z"/></g>
<g><path style="opacity:1" fill="#f3c8bc" d="M 101.5,224.5 C 109.895,224.347 117.562,226.513 124.5,231C 130.741,236.737 136.408,242.903 141.5,249.5C 139.641,249.461 138.308,250.294 137.5,252C 139.436,252.813 141.436,253.313 143.5,253.5C 143.141,255.766 143.808,257.599 145.5,259C 144.944,259.383 144.611,259.883 144.5,260.5C 138.67,254.838 132.67,249.338 126.5,244C 115.736,235.757 104.402,234.59 92.5,240.5C 89.8431,240.162 87.5098,240.829 85.5,242.5C 84.8589,241.007 83.8589,240.007 82.5,239.5C 81.8333,239.5 81.5,239.167 81.5,238.5C 83.9726,238.912 85.3059,237.912 85.5,235.5C 89.4681,229.849 94.8014,226.182 101.5,224.5 Z"/></g>
<g><path style="opacity:0.863" fill="#b28c8c" d="M 76.5,225.5 C 76.8333,225.5 77.1667,225.5 77.5,225.5C 77.8333,225.5 78.1667,225.5 78.5,225.5C 78.7366,228.647 79.5699,231.647 81,234.5C 82.2259,236.548 83.7259,236.881 85.5,235.5C 85.3059,237.912 83.9726,238.912 81.5,238.5C 78.8599,234.586 77.1932,230.252 76.5,225.5 Z"/></g>
<g><path style="opacity:1" fill="#e1988b" d="M 366.5,212.5 C 368.743,219.116 370.076,225.949 370.5,233C 370.359,236.552 369.859,240.052 369,243.5C 368.478,246.281 367.311,248.615 365.5,250.5C 365.618,247.312 366.451,244.312 368,241.5C 368.5,235.175 368.666,228.842 368.5,222.5C 367.5,222.5 366.5,222.5 365.5,222.5C 364.327,232.963 361.66,242.963 357.5,252.5C 358.557,255.604 360.557,256.27 363.5,254.5C 361.906,257.764 359.573,260.431 356.5,262.5C 355.167,262.5 353.833,262.5 352.5,262.5C 352.875,256.991 353.542,251.658 354.5,246.5C 354.336,249.187 354.503,251.854 355,254.5C 360.106,240.731 363.94,226.731 366.5,212.5 Z"/></g>
<g><path style="opacity:1" fill="#253033" d="M 126.5,224.5 C 125.766,225.708 125.433,227.041 125.5,228.5C 131.294,230.067 137.294,230.901 143.5,231C 144.163,232.518 145.163,233.685 146.5,234.5C 149.566,241.368 152.233,248.368 154.5,255.5C 152.143,255.663 149.81,255.497 147.5,255C 146.944,254.617 146.611,254.117 146.5,253.5C 145.415,251.413 143.749,250.08 141.5,249.5C 136.408,242.903 130.741,236.737 124.5,231C 117.562,226.513 109.895,224.347 101.5,224.5C 106.998,223.885 112.665,223.719 118.5,224C 121.16,223.134 123.327,221.634 125,219.5C 125.5,219.833 126,220.167 126.5,220.5C 125.295,221.995 125.295,223.328 126.5,224.5 Z"/></g>
<g><path style="opacity:1" fill="#b8786c" d="M 283.5,229.5 C 287.133,232.174 290.466,235.34 293.5,239C 298.116,241.805 302.783,244.305 307.5,246.5C 303.534,254.48 299.534,262.48 295.5,270.5C 295.167,270.167 294.833,269.833 294.5,269.5C 297.407,262.276 300.407,255.109 303.5,248C 299.308,244.468 294.641,241.802 289.5,240C 286.591,237.015 284.591,233.515 283.5,229.5 Z"/></g>
<g><path style="opacity:0.864" fill="#ebaea5" d="M 82.5,239.5 C 83.8589,240.007 84.8589,241.007 85.5,242.5C 87.5098,240.829 89.8431,240.162 92.5,240.5C 92.5,241.167 92.1667,241.5 91.5,241.5C 88.9771,242.759 86.4771,244.093 84,245.5C 83.3333,248.833 83.3333,252.167 84,255.5C 84.6315,260.061 85.7982,264.394 87.5,268.5C 86.8571,266.924 85.8571,265.59 84.5,264.5C 81.4011,256.488 80.7344,248.154 82.5,239.5 Z"/></g>
<g><path style="opacity:1" fill="#885b55" d="M 141.5,249.5 C 143.749,250.08 145.415,251.413 146.5,253.5C 144.251,252.92 142.585,251.587 141.5,249.5 Z"/></g>
<g><path style="opacity:1" fill="#f7917c" d="M 365.5,250.5 C 365.34,252.153 364.674,253.486 363.5,254.5C 360.557,256.27 358.557,255.604 357.5,252.5C 361.66,242.963 364.327,232.963 365.5,222.5C 366.5,222.5 367.5,222.5 368.5,222.5C 368.666,228.842 368.5,235.175 368,241.5C 366.451,244.312 365.618,247.312 365.5,250.5 Z"/></g>
<g><path style="opacity:1" fill="#c13c33" d="M 144.5,260.5 C 145.11,261.391 145.443,262.391 145.5,263.5C 146.219,265.764 146.552,268.097 146.5,270.5C 135.783,278.69 125.283,278.357 115,269.5C 113.007,261.084 115.673,254.751 123,250.5C 123.45,247.936 122.284,246.436 119.5,246C 110.482,245.832 101.482,245.332 92.5,244.5C 91.8728,243.583 91.5394,242.583 91.5,241.5C 92.1667,241.5 92.5,241.167 92.5,240.5C 104.402,234.59 115.736,235.757 126.5,244C 132.67,249.338 138.67,254.838 144.5,260.5 Z"/></g>
<g><path style="opacity:1" fill="#da6e5f" d="M 91.5,241.5 C 91.5394,242.583 91.8728,243.583 92.5,244.5C 101.482,245.332 110.482,245.832 119.5,246C 122.284,246.436 123.45,247.936 123,250.5C 115.673,254.751 113.007,261.084 115,269.5C 125.283,278.357 135.783,278.69 146.5,270.5C 146.249,273.909 146.583,277.242 147.5,280.5C 144.432,287.52 145.432,288.187 150.5,282.5C 151.192,284.335 150.858,286.168 149.5,288C 148.049,287.737 146.716,287.904 145.5,288.5C 144.626,290.747 144.292,293.08 144.5,295.5C 136.705,295.73 129.039,295.063 121.5,293.5C 116.47,292.577 111.803,290.743 107.5,288C 99.6397,282.639 92.973,276.139 87.5,268.5C 85.7982,264.394 84.6315,260.061 84,255.5C 83.3333,252.167 83.3333,248.833 84,245.5C 86.4771,244.093 88.9771,242.759 91.5,241.5 Z"/></g>
<g><path style="opacity:1" fill="#da7667" d="M 145.5,263.5 C 146.117,263.611 146.617,263.944 147,264.5C 147.104,271.374 149.437,277.374 154,282.5C 155.759,286.009 156.926,289.675 157.5,293.5C 154.312,293.618 151.312,294.451 148.5,296C 145.167,296.167 141.833,296.333 138.5,296.5C 132.444,296.93 126.778,295.93 121.5,293.5C 129.039,295.063 136.705,295.73 144.5,295.5C 144.292,293.08 144.626,290.747 145.5,288.5C 146.716,287.904 148.049,287.737 149.5,288C 150.858,286.168 151.192,284.335 150.5,282.5C 145.432,288.187 144.432,287.52 147.5,280.5C 146.583,277.242 146.249,273.909 146.5,270.5C 146.552,268.097 146.219,265.764 145.5,263.5 Z"/></g>
<g><path style="opacity:0.008" fill="#fe807f" d="M 95.5,290.5 C 96.8333,291.167 96.8333,291.167 95.5,290.5 Z"/></g>
<g><path style="opacity:0.016" fill="#c98a8a" d="M 61.5,292.5 C 61.369,291.761 61.5357,291.094 62,290.5C 62.6917,291.437 62.525,292.103 61.5,292.5 Z"/></g>
<g><path style="opacity:0.031" fill="#d97777" d="M 61.5,292.5 C 61.8186,294.75 61.3186,296.75 60,298.5C 59.8794,296.316 60.3794,294.316 61.5,292.5 Z"/></g>
<g><path style="opacity:1" fill="#b6786c" d="M 265.5,297.5 C 266.583,297.539 267.583,297.873 268.5,298.5C 273.878,305.107 280.878,307.607 289.5,306C 294.582,305.252 299.415,303.752 304,301.5C 304.5,301.833 305,302.167 305.5,302.5C 304.076,304.718 302.076,306.218 299.5,307C 289.84,309.59 280.506,308.923 271.5,305C 268.882,302.894 266.882,300.394 265.5,297.5 Z"/></g>
<g><path style="opacity:1" fill="#e48d86" d="M 200.5,343.5 C 202.38,343.229 203.713,343.896 204.5,345.5C 203.504,345.414 202.671,345.748 202,346.5C 201.502,349.817 201.335,353.15 201.5,356.5C 202.873,356.343 204.207,356.51 205.5,357C 207.334,359.663 209.334,362.163 211.5,364.5C 208.167,361.877 204.5,359.71 200.5,358C 199.594,356.301 199.261,354.467 199.5,352.5C 199.963,349.518 200.296,346.518 200.5,343.5 Z"/></g>
<g><path style="opacity:1" fill="#f6ccbf" d="M 296.5,350.5 C 297.485,354.634 297.818,358.968 297.5,363.5C 297.763,373.199 300.763,381.866 306.5,389.5C 307.325,390.386 308.325,390.719 309.5,390.5C 307.585,395.417 304.252,399.083 299.5,401.5C 296.851,403.14 294.184,404.807 291.5,406.5C 283.697,409.768 275.697,412.434 267.5,414.5C 264.946,415.388 262.279,415.721 259.5,415.5C 243.696,415.942 228.363,413.609 213.5,408.5C 211.859,406.742 209.859,405.242 207.5,404C 206.207,403.51 204.873,403.343 203.5,403.5C 201.407,402.955 199.407,402.122 197.5,401C 196.26,398.256 194.26,396.423 191.5,395.5C 190.18,393.183 188.514,391.183 186.5,389.5C 190.53,378.868 193.363,367.868 195,356.5C 195.792,354.356 197.292,353.023 199.5,352.5C 199.261,354.467 199.594,356.301 200.5,358C 204.5,359.71 208.167,361.877 211.5,364.5C 213.932,367.057 216.932,368.89 220.5,370C 222.295,374.628 225.628,376.461 230.5,375.5C 234.341,380.087 239.341,382.587 245.5,383C 264.122,386.65 280.122,382.15 293.5,369.5C 294.122,368.373 294.955,367.373 296,366.5C 296.499,361.177 296.666,355.844 296.5,350.5 Z"/></g>
<g><path style="opacity:1" fill="#f8d4c6" d="M 202.5,363.5 C 204.671,365.5 207.004,367.334 209.5,369C 213.855,370.846 218.189,372.679 222.5,374.5C 222.297,376.39 222.963,377.89 224.5,379C 248.986,391.316 272.653,390.15 295.5,375.5C 296.07,381.472 298.403,386.639 302.5,391C 292.298,401.269 279.964,407.602 265.5,410C 241.369,412.843 219.202,407.677 199,394.5C 197.924,392.933 197.091,391.266 196.5,389.5C 198.63,380.849 200.63,372.182 202.5,363.5 Z"/></g>
<g><path style="opacity:0.02" fill="#cb9998" d="M 172.5,364.5 C 173.833,365.167 173.833,365.167 172.5,364.5 Z"/></g>
<g><path style="opacity:1" fill="#f37370" d="M 204.5,345.5 C 213.068,349.619 221.735,353.452 230.5,357C 241.292,358.213 252.125,359.046 263,359.5C 273.774,358.68 283.607,355.18 292.5,349C 294.066,348.235 295.399,348.402 296.5,349.5C 296.5,349.833 296.5,350.167 296.5,350.5C 296.666,355.844 296.499,361.177 296,366.5C 294.955,367.373 294.122,368.373 293.5,369.5C 289.45,368.689 286.784,370.189 285.5,374C 267.354,383.283 249.021,383.783 230.5,375.5C 225.628,376.461 222.295,374.628 220.5,370C 216.932,368.89 213.932,367.057 211.5,364.5C 209.334,362.163 207.334,359.663 205.5,357C 204.207,356.51 202.873,356.343 201.5,356.5C 201.335,353.15 201.502,349.817 202,346.5C 202.671,345.748 203.504,345.414 204.5,345.5 Z"/></g>
<g><path style="opacity:0.199" fill="#d29891" d="M 174.5,366.5 C 179.573,366.007 184.573,367.007 189.5,369.5C 189,369.833 188.5,370.167 188,370.5C 183.492,369.083 178.992,367.749 174.5,366.5 Z"/></g>
<g><path style="opacity:1" fill="#f2958c" d="M 293.5,369.5 C 280.122,382.15 264.122,386.65 245.5,383C 239.341,382.587 234.341,380.087 230.5,375.5C 249.021,383.783 267.354,383.283 285.5,374C 286.784,370.189 289.45,368.689 293.5,369.5 Z"/></g>
<g><path style="opacity:0.306" fill="#fbdacb" d="M 297.5,363.5 C 298.496,363.414 299.329,363.748 300,364.5C 303.035,373.566 306.869,382.233 311.5,390.5C 310.833,390.5 310.167,390.5 309.5,390.5C 308.325,390.719 307.325,390.386 306.5,389.5C 300.763,381.866 297.763,373.199 297.5,363.5 Z"/></g>
<g><path style="opacity:1" fill="#76a6d3" d="M 186.5,389.5 C 188.514,391.183 190.18,393.183 191.5,395.5C 189.456,394.969 187.789,393.802 186.5,392C 185.333,391.833 184.167,391.667 183,391.5C 174.31,394.273 165.476,396.606 156.5,398.5C 166.053,394.319 176.053,391.319 186.5,389.5 Z"/></g>
<g><path style="opacity:1" fill="#59a4fd" d="M 197.5,403.5 C 197.577,404.75 198.244,405.583 199.5,406C 196.961,409.063 193.961,411.23 190.5,412.5C 188.189,411.086 186.189,409.253 184.5,407C 183.207,406.51 181.873,406.343 180.5,406.5C 180.343,407.873 180.51,409.207 181,410.5C 187.872,416.896 195.372,422.229 203.5,426.5C 203.5,429.833 203.5,433.167 203.5,436.5C 208.511,436.334 213.511,436.501 218.5,437C 220.196,439.982 222.863,441.316 226.5,441C 221.691,442.442 216.691,442.942 211.5,442.5C 211.5,443.5 211.5,444.5 211.5,445.5C 208.391,445.655 205.391,446.322 202.5,447.5C 201.147,448.524 200.48,449.857 200.5,451.5C 198.516,451.383 196.85,452.05 195.5,453.5C 193.539,456.463 191.206,459.129 188.5,461.5C 188.957,462.298 189.624,462.631 190.5,462.5C 189.545,464.71 188.045,465.043 186,463.5C 180.216,473.067 176.716,483.4 175.5,494.5C 174.883,494.611 174.383,494.944 174,495.5C 173.333,501.167 173.333,506.833 174,512.5C 176.163,518.32 177.496,524.32 178,530.5C 179.076,533.079 180.909,534.746 183.5,535.5C 184.957,537.628 185.957,539.962 186.5,542.5C 186.5,543.833 186.5,545.167 186.5,546.5C 187.5,546.5 188.5,546.5 189.5,546.5C 192.231,549.486 194.065,553.153 195,557.5C 196.356,558.38 197.856,558.714 199.5,558.5C 199.5,559.167 199.5,559.833 199.5,560.5C 199.5,561.167 199.5,561.833 199.5,562.5C 198.859,565.891 197.692,569.224 196,572.5C 193.983,569.856 193.15,566.856 193.5,563.5C 192.5,563.5 191.5,563.5 190.5,563.5C 190.777,570.248 191.277,576.581 192,582.5C 190.667,583.167 189.333,583.833 188,584.5C 187.759,587.289 187.092,589.956 186,592.5C 184.152,589.959 181.652,588.959 178.5,589.5C 178.833,592.5 177.5,593.833 174.5,593.5C 174.653,597.793 173.32,601.459 170.5,604.5C 172.031,605.613 173.031,607.113 173.5,609C 171.699,611.419 170.699,614.252 170.5,617.5C 170.507,619.369 170.84,621.036 171.5,622.5C 169.488,625.769 167.821,625.769 166.5,622.5C 163.08,621.247 161.746,622.581 162.5,626.5C 161.5,626.5 160.5,626.5 159.5,626.5C 158.756,624.014 157.256,622.014 155,620.5C 153.951,622.107 152.451,622.773 150.5,622.5C 149.213,619.594 148.213,616.594 147.5,613.5C 146.167,613.5 144.833,613.5 143.5,613.5C 143.351,616.607 143.851,619.607 145,622.5C 152.168,637.519 160.835,651.519 171,664.5C 177.894,670.397 184.394,676.564 190.5,683C 187.769,686.871 184.769,690.538 181.5,694C 175.74,698.779 170.073,703.613 164.5,708.5C 161.977,707.616 159.31,706.782 156.5,706C 155.929,704.795 155.262,703.628 154.5,702.5C 152.929,703.309 151.262,703.643 149.5,703.5C 149.892,706.948 149.225,710.114 147.5,713C 147.667,713.5 147.833,714 148,714.5C 148.826,712.595 149.993,712.261 151.5,713.5C 150.115,714.551 149.115,715.884 148.5,717.5C 144.894,720.101 141.561,723.101 138.5,726.5C 136.885,727.154 135.218,727.654 133.5,728C 129.449,732.918 124.616,735.752 119,736.5C 116.352,738.388 114.518,740.888 113.5,744C 110.037,746.398 106.37,748.232 102.5,749.5C 102.67,750.822 102.337,751.989 101.5,753C 94.3341,756.863 86.6674,759.03 78.5,759.5C 78.4208,758.07 78.7542,756.736 79.5,755.5C 77.2289,752.7 75.5622,753.034 74.5,756.5C 74.6316,758.601 75.6316,760.101 77.5,761C 75.5211,761.684 73.8544,761.184 72.5,759.5C 68.8041,761.502 64.4708,762.502 59.5,762.5C 59.5,763.5 59.5,764.5 59.5,765.5C 48.8333,765.5 38.1667,765.5 27.5,765.5C 26.341,762.338 25.0076,759.171 23.5,756C 24.1667,754.667 24.8333,753.333 25.5,752C 23.8333,748.667 22.1667,748.667 20.5,752C 21.3295,753.465 21.4962,754.965 21,756.5C 18.7213,753.619 15.888,751.619 12.5,750.5C 9.23118,746.299 6.73118,741.632 5,736.5C 3.00869,724.929 2.17536,713.262 2.5,701.5C 2.33891,674.683 5.33891,648.35 11.5,622.5C 14.7216,622.892 17.7216,622.392 20.5,621C 19.1384,618.561 17.305,618.061 15,619.5C 15.0863,616.298 16.0863,613.298 18,610.5C 18.3333,611.833 18.6667,613.167 19,614.5C 20.3747,612.063 20.8747,609.397 20.5,606.5C 21.8333,606.5 23.1667,606.5 24.5,606.5C 24.5,601.5 24.5,596.5 24.5,591.5C 22.7839,591.371 21.1172,591.038 19.5,590.5C 20.7029,583.691 22.5362,577.025 25,570.5C 25.0704,562.962 26.2371,555.629 28.5,548.5C 29.4959,548.586 30.3292,548.252 31,547.5C 33.5695,540.349 35.5695,533.016 37,525.5C 38.8497,521.111 40.8497,516.777 43,512.5C 43.4935,510.866 43.6602,509.199 43.5,507.5C 43.5,507.167 43.5,506.833 43.5,506.5C 45.0898,506.372 46.4231,505.705 47.5,504.5C 50.3333,493.836 55,484.17 61.5,475.5C 62.3857,476.325 62.719,477.325 62.5,478.5C 64.1667,478.5 65.8333,478.5 67.5,478.5C 67.8333,475.5 66.5,474.167 63.5,474.5C 62.3395,469.825 64.0061,467.159 68.5,466.5C 68.0785,463.343 69.2452,461.01 72,459.5C 73.9142,460.676 73.7476,461.676 71.5,462.5C 71.8627,463.183 72.1961,463.85 72.5,464.5C 70.6668,466.022 69.6668,468.022 69.5,470.5C 70.8523,473.169 72.1856,475.836 73.5,478.5C 74.552,478.351 75.552,478.517 76.5,479C 76.141,483.992 75.8077,489.158 75.5,494.5C 77.9477,494.915 79.2811,493.915 79.5,491.5C 78.4114,488.482 77.7447,485.649 77.5,483C 78.1667,482.333 78.8333,482.333 79.5,483C 81.7196,485.465 83.3862,488.298 84.5,491.5C 82.5968,492.947 80.9301,494.614 79.5,496.5C 79.7763,498.33 80.443,499.997 81.5,501.5C 83.9486,501.98 86.1153,502.98 88,504.5C 89.3639,503.742 90.5305,504.242 91.5,506C 89.8198,506.347 88.8198,507.347 88.5,509C 91.4908,513.233 91.8242,517.566 89.5,522C 89.8012,526.447 90.3012,526.281 91,521.5C 91.9237,525.91 92.2571,530.243 92,534.5C 92.4152,532.709 93.4152,531.376 95,530.5C 95.4922,531.549 95.3256,532.549 94.5,533.5C 96.5668,534.134 98.4002,535.134 100,536.5C 100.706,542.749 101.54,548.749 102.5,554.5C 100.197,559.629 99.8636,564.962 101.5,570.5C 100.063,576.737 99.2294,583.071 99,589.5C 97.5362,590.459 96.7028,591.792 96.5,593.5C 98.2798,598.435 99.7798,603.435 101,608.5C 101.464,607.906 101.631,607.239 101.5,606.5C 102.849,614.754 101.682,622.754 98,630.5C 95.5851,627.945 95.0851,625.111 96.5,622C 95.9103,620.491 95.2436,618.991 94.5,617.5C 92.156,619.194 91.156,621.528 91.5,624.5C 92.706,628.451 93.706,632.451 94.5,636.5C 94.3918,637.442 94.0585,638.275 93.5,639C 95.442,640.909 97.1087,643.075 98.5,645.5C 101.244,646.491 103.911,646.157 106.5,644.5C 107.429,643.311 107.762,641.978 107.5,640.5C 107.5,639.833 107.5,639.167 107.5,638.5C 108.597,624.343 109.264,610.009 109.5,595.5C 111.394,580.559 111.894,565.559 111,550.5C 102.361,516.412 90.8607,483.412 76.5,451.5C 77.4959,451.586 78.3292,451.252 79,450.5C 83.7108,442.789 90.0442,436.789 98,432.5C 98.49,431.207 98.6567,429.873 98.5,428.5C 98.5,427.833 98.8333,427.5 99.5,427.5C 104.692,425.496 109.358,422.663 113.5,419C 116.882,418.984 119.216,417.484 120.5,414.5C 123.574,413.698 126.574,412.698 129.5,411.5C 132.066,411.344 134.566,411.678 137,412.5C 138.653,412.18 139.653,411.18 140,409.5C 141.356,410.38 142.856,410.714 144.5,410.5C 144.5,409.167 144.5,407.833 144.5,406.5C 146.095,405.638 147.762,405.138 149.5,405C 152.003,406.549 152.003,408.216 149.5,410C 151.473,410.495 153.473,410.662 155.5,410.5C 155.5,406.833 155.5,403.167 155.5,399.5C 162.021,399.662 168.354,398.662 174.5,396.5C 178.658,398.95 182.991,400.95 187.5,402.5C 187.343,403.873 187.51,405.207 188,406.5C 189.295,404.878 190.795,403.545 192.5,402.5C 194.135,403.046 195.801,403.38 197.5,403.5 Z M 107.5,638.5 C 107.5,639.167 107.5,639.833 107.5,640.5C 104.607,642.114 101.607,643.447 98.5,644.5C 100.242,631.205 103.075,618.205 107,605.5C 107.5,616.495 107.667,627.495 107.5,638.5 Z"/></g>
<g><path style="opacity:1" fill="#8ca2d3" d="M 191.5,395.5 C 194.26,396.423 196.26,398.256 197.5,401C 199.407,402.122 201.407,402.955 203.5,403.5C 205.19,405.342 207.19,406.675 209.5,407.5C 207.801,407.66 206.134,407.494 204.5,407C 202.607,404.978 200.273,403.812 197.5,403.5C 195.328,401.062 193.328,398.395 191.5,395.5 Z"/></g>
<g><path style="opacity:0.816" fill="#77a9d9" d="M 339.5,398.5 C 346.947,400.73 353.947,403.73 360.5,407.5C 356.921,407.684 353.587,407.017 350.5,405.5C 347.858,402.683 344.525,401.183 340.5,401C 339.748,400.329 339.414,399.496 339.5,398.5 Z"/></g>
<g><path style="opacity:1" fill="#66a6e6" d="M 309.5,390.5 C 310.167,390.5 310.833,390.5 311.5,390.5C 320.952,391.987 329.952,394.654 338.5,398.5C 330.48,396.629 322.48,394.629 314.5,392.5C 309.054,395.427 306.388,399.927 306.5,406C 305.5,406.667 304.5,406.667 303.5,406C 302.646,404.978 301.646,404.145 300.5,403.5C 299.148,404.524 297.815,405.524 296.5,406.5C 297.075,404.589 298.075,402.922 299.5,401.5C 304.252,399.083 307.585,395.417 309.5,390.5 Z"/></g>
<g><path style="opacity:1" fill="#6ba6dd" d="M 150.5,400.5 C 148.901,402.309 146.901,403.642 144.5,404.5C 143.96,405.748 143.293,406.915 142.5,408C 140.189,407.845 137.856,407.845 135.5,408C 133.382,409.082 131.382,410.249 129.5,411.5C 126.574,412.698 123.574,413.698 120.5,414.5C 129.919,408.793 139.919,404.127 150.5,400.5 Z"/></g>
<g><path style="opacity:1" fill="#5ca4f5" d="M 191.5,395.5 C 193.328,398.395 195.328,401.062 197.5,403.5C 195.801,403.38 194.135,403.046 192.5,402.5C 190.795,403.545 189.295,404.878 188,406.5C 187.51,405.207 187.343,403.873 187.5,402.5C 182.991,400.95 178.658,398.95 174.5,396.5C 168.354,398.662 162.021,399.662 155.5,399.5C 155.5,403.167 155.5,406.833 155.5,410.5C 153.473,410.662 151.473,410.495 149.5,410C 152.003,408.216 152.003,406.549 149.5,405C 147.762,405.138 146.095,405.638 144.5,406.5C 144.5,407.833 144.5,409.167 144.5,410.5C 142.856,410.714 141.356,410.38 140,409.5C 139.653,411.18 138.653,412.18 137,412.5C 134.566,411.678 132.066,411.344 129.5,411.5C 131.382,410.249 133.382,409.082 135.5,408C 137.856,407.845 140.189,407.845 142.5,408C 143.293,406.915 143.96,405.748 144.5,404.5C 146.901,403.642 148.901,402.309 150.5,400.5C 152.297,399.27 154.297,398.604 156.5,398.5C 165.476,396.606 174.31,394.273 183,391.5C 184.167,391.667 185.333,391.833 186.5,392C 187.789,393.802 189.456,394.969 191.5,395.5 Z"/></g>
<g><path style="opacity:1" fill="#92a5d3" d="M 299.5,401.5 C 298.075,402.922 297.075,404.589 296.5,406.5C 291.997,407.996 287.663,409.663 283.5,411.5C 286.167,409.833 288.833,408.167 291.5,406.5C 294.184,404.807 296.851,403.14 299.5,401.5 Z"/></g>
<g><path style="opacity:1" fill="#5aa3fb" d="M 350.5,405.5 C 353.587,407.017 356.921,407.684 360.5,407.5C 361.167,407.5 361.833,407.5 362.5,407.5C 362.539,408.583 362.873,409.583 363.5,410.5C 366.591,411.896 369.591,413.396 372.5,415C 374.223,418.808 377.223,420.475 381.5,420C 385.211,422.058 388.544,424.558 391.5,427.5C 392.689,428.429 394.022,428.762 395.5,428.5C 400.129,435.46 405.463,441.793 411.5,447.5C 399.7,473.642 389.867,500.642 382,528.5C 380.55,533.399 379.716,538.399 379.5,543.5C 380.833,543.5 382.167,543.5 383.5,543.5C 383.132,539.956 384.132,536.956 386.5,534.5C 388.371,535.881 389.704,537.715 390.5,540C 389.615,542.157 387.948,542.99 385.5,542.5C 384.993,547.869 384.159,553.202 383,558.5C 381.413,559.727 380.079,559.394 379,557.5C 378.667,552.833 378.333,548.167 378,543.5C 377.147,541.875 376.147,541.542 375,542.5C 374.667,547.833 374.333,553.167 374,558.5C 373.333,552.833 373.333,547.167 374,541.5C 374.5,541 375,540.5 375.5,540C 373.611,536.164 372.945,531.997 373.5,527.5C 372.178,527.67 371.011,527.337 370,526.5C 369.348,521.715 369.848,517.049 371.5,512.5C 370.481,510.396 369.481,508.396 368.5,506.5C 369.089,502.029 368.423,498.029 366.5,494.5C 366.234,489.627 365.068,484.96 363,480.5C 362.208,477.894 360.708,475.894 358.5,474.5C 357.585,472.246 356.252,470.246 354.5,468.5C 353.952,466.606 352.952,464.94 351.5,463.5C 348.569,461.576 345.903,459.243 343.5,456.5C 340.914,455.52 338.247,455.187 335.5,455.5C 332.22,454.288 328.887,453.288 325.5,452.5C 309.653,450.285 295.653,454.619 283.5,465.5C 282.078,465.709 280.745,466.209 279.5,467C 275.404,471.023 272.737,475.857 271.5,481.5C 268.41,477.641 265.576,473.641 263,469.5C 262.517,468.552 262.351,467.552 262.5,466.5C 260.435,466.483 258.435,466.15 256.5,465.5C 256.461,464.417 256.127,463.417 255.5,462.5C 252.577,461.552 249.911,460.219 247.5,458.5C 236.204,452.789 224.204,451.122 211.5,453.5C 207.678,455.441 203.678,456.774 199.5,457.5C 197.821,457.892 196.154,458.392 194.5,459C 193.897,461.071 192.564,462.238 190.5,462.5C 189.624,462.631 188.957,462.298 188.5,461.5C 191.206,459.129 193.539,456.463 195.5,453.5C 196.85,452.05 198.516,451.383 200.5,451.5C 200.48,449.857 201.147,448.524 202.5,447.5C 205.391,446.322 208.391,445.655 211.5,445.5C 211.5,444.5 211.5,443.5 211.5,442.5C 216.691,442.942 221.691,442.442 226.5,441C 222.863,441.316 220.196,439.982 218.5,437C 213.511,436.501 208.511,436.334 203.5,436.5C 203.5,433.167 203.5,429.833 203.5,426.5C 211.123,429.969 219.123,432.303 227.5,433.5C 249.836,438.532 271.836,436.866 293.5,428.5C 300.223,424.146 306.89,419.812 313.5,415.5C 312.209,416.473 312.209,417.473 313.5,418.5C 310.743,421.316 311.243,421.982 315,420.5C 313.775,417.669 314.441,415.336 317,413.5C 319.769,413.354 322.769,413.687 326,414.5C 326.943,404.835 327.776,404.501 328.5,413.5C 329.5,413.5 330.5,413.5 331.5,413.5C 331.5,411.167 331.5,408.833 331.5,406.5C 336.433,405.011 341.433,404.178 346.5,404C 345.833,404.333 345.167,404.667 344.5,405C 346.548,406.241 348.548,406.408 350.5,405.5 Z"/></g>
<g><path style="opacity:1" fill="#5aa4f8" d="M 338.5,398.5 C 338.833,398.5 339.167,398.5 339.5,398.5C 339.414,399.496 339.748,400.329 340.5,401C 344.525,401.183 347.858,402.683 350.5,405.5C 348.548,406.408 346.548,406.241 344.5,405C 345.167,404.667 345.833,404.333 346.5,404C 341.433,404.178 336.433,405.011 331.5,406.5C 331.5,408.833 331.5,411.167 331.5,413.5C 330.5,413.5 329.5,413.5 328.5,413.5C 327.776,404.501 326.943,404.835 326,414.5C 322.769,413.687 319.769,413.354 317,413.5C 314.441,415.336 313.775,417.669 315,420.5C 311.243,421.982 310.743,421.316 313.5,418.5C 312.209,417.473 312.209,416.473 313.5,415.5C 314.141,414.518 314.807,413.518 315.5,412.5C 313.579,411.359 311.579,411.192 309.5,412C 293.12,424.694 274.453,431.194 253.5,431.5C 247.516,430.835 241.516,430.501 235.5,430.5C 221.81,428.381 208.81,424.048 196.5,417.5C 194.429,415.815 192.429,414.148 190.5,412.5C 193.961,411.23 196.961,409.063 199.5,406C 198.244,405.583 197.577,404.75 197.5,403.5C 200.273,403.812 202.607,404.978 204.5,407C 206.134,407.494 207.801,407.66 209.5,407.5C 210.568,408.434 211.901,408.768 213.5,408.5C 214.574,410.284 216.24,411.451 218.5,412C 232.089,415.832 245.756,416.999 259.5,415.5C 262.279,415.721 264.946,415.388 267.5,414.5C 273.177,414.622 278.51,413.622 283.5,411.5C 287.663,409.663 291.997,407.996 296.5,406.5C 297.815,405.524 299.148,404.524 300.5,403.5C 301.646,404.145 302.646,404.978 303.5,406C 304.5,406.667 305.5,406.667 306.5,406C 306.388,399.927 309.054,395.427 314.5,392.5C 322.48,394.629 330.48,396.629 338.5,398.5 Z"/></g>
<g><path style="opacity:1" fill="#b2acc3" d="M 291.5,406.5 C 288.833,408.167 286.167,409.833 283.5,411.5C 278.51,413.622 273.177,414.622 267.5,414.5C 275.697,412.434 283.697,409.768 291.5,406.5 Z"/></g>
<g><path style="opacity:1" fill="#b9b0c4" d="M 213.5,408.5 C 228.363,413.609 243.696,415.942 259.5,415.5C 245.756,416.999 232.089,415.832 218.5,412C 216.24,411.451 214.574,410.284 213.5,408.5 Z"/></g>
<g><path style="opacity:1" fill="#d0b6cb" d="M 203.5,403.5 C 204.873,403.343 206.207,403.51 207.5,404C 209.859,405.242 211.859,406.742 213.5,408.5C 211.901,408.768 210.568,408.434 209.5,407.5C 207.19,406.675 205.19,405.342 203.5,403.5 Z"/></g>
<g><path style="opacity:1" fill="#4989da" d="M 190.5,412.5 C 192.429,414.148 194.429,415.815 196.5,417.5C 208.81,424.048 221.81,428.381 235.5,430.5C 232.022,430.184 228.688,430.684 225.5,432C 226.416,432.278 227.082,432.778 227.5,433.5C 219.123,432.303 211.123,429.969 203.5,426.5C 195.372,422.229 187.872,416.896 181,410.5C 180.51,409.207 180.343,407.873 180.5,406.5C 181.873,406.343 183.207,406.51 184.5,407C 186.189,409.253 188.189,411.086 190.5,412.5 Z"/></g>
<g><path style="opacity:1" fill="#6facda" d="M 120.5,414.5 C 119.216,417.484 116.882,418.984 113.5,419C 109.358,422.663 104.692,425.496 99.5,427.5C 105.7,421.986 112.7,417.653 120.5,414.5 Z"/></g>
<g><path style="opacity:1" fill="#74a4dc" d="M 362.5,407.5 C 368.389,410.751 374.389,413.918 380.5,417C 385.929,420.369 390.929,424.202 395.5,428.5C 394.022,428.762 392.689,428.429 391.5,427.5C 388.544,424.558 385.211,422.058 381.5,420C 377.223,420.475 374.223,418.808 372.5,415C 369.591,413.396 366.591,411.896 363.5,410.5C 362.873,409.583 362.539,408.583 362.5,407.5 Z"/></g>
<g><path style="opacity:1" fill="#4a85dc" d="M 313.5,415.5 C 306.89,419.812 300.223,424.146 293.5,428.5C 271.836,436.866 249.836,438.532 227.5,433.5C 227.082,432.778 226.416,432.278 225.5,432C 228.688,430.684 232.022,430.184 235.5,430.5C 241.516,430.501 247.516,430.835 253.5,431.5C 274.453,431.194 293.12,424.694 309.5,412C 311.579,411.192 313.579,411.359 315.5,412.5C 314.807,413.518 314.141,414.518 313.5,415.5 Z"/></g>
<g><path style="opacity:1" fill="#71a4db" d="M 395.5,428.5 C 405.957,435.792 414.123,445.126 420,456.5C 423.435,463.036 426.601,469.703 429.5,476.5C 424.287,471.926 420.953,466.093 419.5,459C 417.707,457.221 416.041,455.388 414.5,453.5C 414.008,451.181 413.008,449.181 411.5,447.5C 405.463,441.793 400.129,435.46 395.5,428.5 Z"/></g>
<g><path style="opacity:1" fill="#6fa9e1" d="M 98.5,428.5 C 98.6567,429.873 98.49,431.207 98,432.5C 90.0442,436.789 83.7108,442.789 79,450.5C 78.3292,451.252 77.4959,451.586 76.5,451.5C 75.8333,451.5 75.1667,451.5 74.5,451.5C 81.2284,442.437 89.2284,434.77 98.5,428.5 Z"/></g>
<g><path style="opacity:1" fill="#c26a8d" d="M 325.5,452.5 C 328.887,453.288 332.22,454.288 335.5,455.5C 339.438,457.471 343.105,459.804 346.5,462.5C 339.754,460.265 333.087,457.765 326.5,455C 318.694,454.026 311.027,454.526 303.5,456.5C 302.167,456.5 300.833,456.5 299.5,456.5C 307.679,453.139 316.345,451.806 325.5,452.5 Z"/></g>
<g><path style="opacity:1" fill="#bc6d98" d="M 247.5,458.5 C 248.5,459.833 249.5,461.167 250.5,462.5C 232.21,451.949 213.877,451.949 195.5,462.5C 196.75,460.846 198.084,459.179 199.5,457.5C 203.678,456.774 207.678,455.441 211.5,453.5C 224.204,451.122 236.204,452.789 247.5,458.5 Z"/></g>
<g><path style="opacity:1" fill="#a88bc6" d="M 325.5,452.5 C 316.345,451.806 307.679,453.139 299.5,456.5C 297.615,458.311 295.281,459.478 292.5,460C 289.386,462.435 286.386,464.935 283.5,467.5C 283.5,466.833 283.5,466.167 283.5,465.5C 295.653,454.619 309.653,450.285 325.5,452.5 Z"/></g>
<g><path style="opacity:1" fill="#e84e5e" d="M 250.5,462.5 C 251.391,463.11 252.391,463.443 253.5,463.5C 256.436,468.105 260.102,472.105 264.5,475.5C 264.285,477.179 264.952,478.179 266.5,478.5C 266.567,485.619 269.567,487.619 275.5,484.5C 276.117,484.389 276.617,484.056 277,483.5C 277.499,487.152 277.665,490.818 277.5,494.5C 278.5,494.5 279.5,494.5 280.5,494.5C 280.725,487.995 281.725,481.662 283.5,475.5C 286.346,475.97 288.679,475.137 290.5,473C 288.527,472.505 286.527,472.338 284.5,472.5C 284.5,471.167 284.5,469.833 284.5,468.5C 287.833,468.5 289.5,466.833 289.5,463.5C 291.288,463.785 292.955,463.452 294.5,462.5C 297.299,460.133 300.299,458.133 303.5,456.5C 311.027,454.526 318.694,454.026 326.5,455C 333.087,457.765 339.754,460.265 346.5,462.5C 347.167,462.833 347.833,463.167 348.5,463.5C 351.101,467.771 354.434,471.437 358.5,474.5C 359.727,479.415 361.561,484.081 364,488.5C 364.729,498.527 364.563,508.527 363.5,518.5C 362.206,519.29 361.039,520.29 360,521.5C 359.281,527.587 357.447,533.254 354.5,538.5C 353.766,539.708 353.433,541.041 353.5,542.5C 351.983,542.511 350.816,543.177 350,544.5C 349.616,547.06 348.783,549.394 347.5,551.5C 347.5,552.167 347.5,552.833 347.5,553.5C 346.833,553.833 346.167,554.167 345.5,554.5C 341.316,556.456 338.983,559.789 338.5,564.5C 334.944,566.557 331.277,568.39 327.5,570C 326.773,571.399 326.273,572.899 326,574.5C 323.336,575.998 321.17,577.998 319.5,580.5C 315.774,580.823 312.107,580.489 308.5,579.5C 311.345,576.794 314.512,575.794 318,576.5C 319.404,576.491 320.57,575.991 321.5,575C 320.53,561.311 313.197,556.811 299.5,561.5C 299.5,562.5 299.5,563.5 299.5,564.5C 297.62,564.229 296.287,564.896 295.5,566.5C 294.486,567.674 293.153,568.34 291.5,568.5C 288.359,568.949 285.359,569.949 282.5,571.5C 280.61,571.131 279.776,570.131 280,568.5C 281.785,567.76 283.618,567.093 285.5,566.5C 290.688,563.27 295.688,559.77 300.5,556C 301.833,555.667 303.167,555.333 304.5,555C 306.556,546.949 303.889,541.115 296.5,537.5C 291.727,537.715 288.06,539.715 285.5,543.5C 279.048,547.896 272.048,551.563 264.5,554.5C 262.5,554.5 260.5,554.5 258.5,554.5C 258.5,555.5 258.5,556.5 258.5,557.5C 253.561,559.319 248.561,560.985 243.5,562.5C 242.5,562.333 241.5,562.167 240.5,562C 241.223,559.982 242.223,558.148 243.5,556.5C 245.853,553.151 248.52,550.151 251.5,547.5C 252.708,546.766 254.041,546.433 255.5,546.5C 256.522,539.884 254.688,534.217 250,529.5C 247.26,530.282 244.426,530.782 241.5,531C 239.35,534.018 236.35,535.851 232.5,536.5C 231.288,539.302 229.621,541.802 227.5,544C 223.49,544.501 219.49,545.001 215.5,545.5C 215.657,544.127 215.49,542.793 215,541.5C 212.553,542.406 210.053,543.239 207.5,544C 209.377,545.185 211.377,546.185 213.5,547C 214.76,548.814 214.76,550.647 213.5,552.5C 209.609,552.753 207.609,554.753 207.5,558.5C 206.5,558.5 205.5,558.5 204.5,558.5C 203.503,558.53 202.836,558.03 202.5,557C 203.833,555 205.167,553 206.5,551C 205.878,548.52 204.544,548.02 202.5,549.5C 202.167,548.833 201.833,548.167 201.5,547.5C 203.106,545.41 203.606,543.076 203,540.5C 198.734,539.195 195.067,536.862 192,533.5C 190.274,534.576 188.441,534.743 186.5,534C 185.947,532.122 184.947,530.622 183.5,529.5C 183.167,529.5 182.833,529.5 182.5,529.5C 180.334,523.337 179.001,517.004 178.5,510.5C 177.971,499.96 179.137,489.626 182,479.5C 183.011,478.663 184.178,478.33 185.5,478.5C 185.5,477.5 185.5,476.5 185.5,475.5C 187.167,475.5 188.833,475.5 190.5,475.5C 190.739,473.533 190.406,471.699 189.5,470C 191.093,469.051 192.426,467.885 193.5,466.5C 194.167,465.167 194.833,463.833 195.5,462.5C 213.877,451.949 232.21,451.949 250.5,462.5 Z"/></g>
<g><path style="opacity:1" fill="#9087c6" d="M 247.5,458.5 C 249.911,460.219 252.577,461.552 255.5,462.5C 256.127,463.417 256.461,464.417 256.5,465.5C 255.5,464.833 254.5,464.167 253.5,463.5C 252.391,463.443 251.391,463.11 250.5,462.5C 249.5,461.167 248.5,459.833 247.5,458.5 Z"/></g>
<g><path style="opacity:1" fill="#918acc" d="M 335.5,455.5 C 338.247,455.187 340.914,455.52 343.5,456.5C 345.903,459.243 348.569,461.576 351.5,463.5C 352.952,464.94 353.952,466.606 354.5,468.5C 352.5,466.833 350.5,465.167 348.5,463.5C 347.833,463.167 347.167,462.833 346.5,462.5C 343.105,459.804 339.438,457.471 335.5,455.5 Z"/></g>
<g><path style="opacity:1" fill="#b06c90" d="M 348.5,463.5 C 350.5,465.167 352.5,466.833 354.5,468.5C 356.252,470.246 357.585,472.246 358.5,474.5C 354.434,471.437 351.101,467.771 348.5,463.5 Z"/></g>
<g><path style="opacity:1" fill="#65a7e8" d="M 74.5,451.5 C 73.2493,455.598 73.5827,459.598 75.5,463.5C 75.1806,467.137 74.014,470.47 72,473.5C 71.0565,472.737 70.5565,471.737 70.5,470.5C 71.7545,468.666 72.4211,466.666 72.5,464.5C 72.1961,463.85 71.8627,463.183 71.5,462.5C 73.7476,461.676 73.9142,460.676 72,459.5C 69.2452,461.01 68.0785,463.343 68.5,466.5C 64.0061,467.159 62.3395,469.825 63.5,474.5C 66.5,474.167 67.8333,475.5 67.5,478.5C 65.8333,478.5 64.1667,478.5 62.5,478.5C 62.719,477.325 62.3857,476.325 61.5,475.5C 55,484.17 50.3333,493.836 47.5,504.5C 46.4231,505.705 45.0898,506.372 43.5,506.5C 51.5154,486.796 61.8487,468.463 74.5,451.5 Z"/></g>
<g><path style="opacity:1" fill="#bf6c8e" d="M 195.5,462.5 C 194.833,463.833 194.167,465.167 193.5,466.5C 191.216,466.975 189.216,467.975 187.5,469.5C 188.802,467.31 190.469,465.31 192.5,463.5C 193.417,462.873 194.417,462.539 195.5,462.5 Z"/></g>
<g><path style="opacity:1" fill="#8f99d6" d="M 199.5,457.5 C 198.084,459.179 196.75,460.846 195.5,462.5C 194.417,462.539 193.417,462.873 192.5,463.5C 190.469,465.31 188.802,467.31 187.5,469.5C 180.978,476.608 177.311,484.941 176.5,494.5C 176.167,494.5 175.833,494.5 175.5,494.5C 176.716,483.4 180.216,473.067 186,463.5C 188.045,465.043 189.545,464.71 190.5,462.5C 192.564,462.238 193.897,461.071 194.5,459C 196.154,458.392 197.821,457.892 199.5,457.5 Z"/></g>
<g><path style="opacity:1" fill="#7f96d9" d="M 256.5,465.5 C 258.435,466.15 260.435,466.483 262.5,466.5C 262.351,467.552 262.517,468.552 263,469.5C 265.576,473.641 268.41,477.641 271.5,481.5C 272.737,475.857 275.404,471.023 279.5,467C 280.745,466.209 282.078,465.709 283.5,465.5C 283.5,466.167 283.5,466.833 283.5,467.5C 283.5,468.167 283.5,468.833 283.5,469.5C 279.094,470.909 276.427,473.909 275.5,478.5C 274.262,480.214 273.595,482.214 273.5,484.5C 272.127,484.657 270.793,484.49 269.5,484C 268.771,481.942 267.771,480.109 266.5,478.5C 264.952,478.179 264.285,477.179 264.5,475.5C 262.237,471.897 259.57,468.564 256.5,465.5 Z"/></g>
<g><path style="opacity:1" fill="#ac6897" d="M 253.5,463.5 C 254.5,464.167 255.5,464.833 256.5,465.5C 259.57,468.564 262.237,471.897 264.5,475.5C 260.102,472.105 256.436,468.105 253.5,463.5 Z"/></g>
<g><path style="opacity:1" fill="#b778a4" d="M 283.5,469.5 C 281.518,473.146 278.851,476.146 275.5,478.5C 276.427,473.909 279.094,470.909 283.5,469.5 Z"/></g>
<g><path style="opacity:1" fill="#e0536a" d="M 299.5,456.5 C 300.833,456.5 302.167,456.5 303.5,456.5C 300.299,458.133 297.299,460.133 294.5,462.5C 292.955,463.452 291.288,463.785 289.5,463.5C 289.5,466.833 287.833,468.5 284.5,468.5C 284.5,469.833 284.5,471.167 284.5,472.5C 286.527,472.338 288.527,472.505 290.5,473C 288.679,475.137 286.346,475.97 283.5,475.5C 281.725,481.662 280.725,487.995 280.5,494.5C 279.5,494.5 278.5,494.5 277.5,494.5C 277.665,490.818 277.499,487.152 277,483.5C 276.617,484.056 276.117,484.389 275.5,484.5C 275.5,482.5 275.5,480.5 275.5,478.5C 278.851,476.146 281.518,473.146 283.5,469.5C 283.5,468.833 283.5,468.167 283.5,467.5C 286.386,464.935 289.386,462.435 292.5,460C 295.281,459.478 297.615,458.311 299.5,456.5 Z"/></g>
<g><path style="opacity:1" fill="#59a4fd" d="M 414.5,453.5 C 416.041,455.388 417.707,457.221 419.5,459C 420.953,466.093 424.287,471.926 429.5,476.5C 429.5,476.833 429.5,477.167 429.5,477.5C 430.169,483.515 432.003,489.181 435,494.5C 435.769,500.411 436.936,506.244 438.5,512C 439.121,514.141 440.454,515.641 442.5,516.5C 443.15,518.435 443.483,520.435 443.5,522.5C 445.011,531.069 446.344,539.736 447.5,548.5C 448.065,550.544 449.065,552.21 450.5,553.5C 450.5,554.167 450.5,554.833 450.5,555.5C 450.149,566.822 451.649,577.822 455,588.5C 455.333,596.833 455.667,605.167 456,613.5C 456.414,613.957 456.914,614.291 457.5,614.5C 458.495,620.128 458.829,625.794 458.5,631.5C 458.249,636.507 457.916,641.507 457.5,646.5C 456.167,646.5 454.833,646.5 453.5,646.5C 453.5,648.833 453.5,651.167 453.5,653.5C 455.541,653.854 457.374,653.854 459,653.5C 459.333,651.167 459.667,648.833 460,646.5C 460.5,651.511 460.333,656.511 459.5,661.5C 460.167,668.167 460.833,674.833 461.5,681.5C 459.927,688.416 459.26,695.416 459.5,702.5C 457.692,702.491 456.025,702.991 454.5,704C 456.623,705.773 458.623,706.94 460.5,707.5C 459.066,708.23 457.9,709.23 457,710.5C 456.612,708.285 455.612,706.952 454,706.5C 452.323,708.676 450.489,710.676 448.5,712.5C 449.325,713.386 450.325,713.719 451.5,713.5C 451.527,715.199 452.194,716.533 453.5,717.5C 450.193,717.538 447.026,716.872 444,715.5C 438.432,710.743 432.932,706.076 427.5,701.5C 423.845,700.414 420.178,700.414 416.5,701.5C 414.919,681.847 413.419,662.181 412,642.5C 409.919,632.164 406.919,622.164 403,612.5C 396.949,599.397 390.116,586.731 382.5,574.5C 381.5,636.163 381.167,697.83 381.5,759.5C 378.418,761.181 375.085,761.848 371.5,761.5C 368.972,760.834 366.306,760.168 363.5,759.5C 288.836,758.333 214.169,758.167 139.5,759C 134.467,759.171 129.467,759.671 124.5,760.5C 124.137,761.183 123.804,761.85 123.5,762.5C 123.5,763.5 123.5,764.5 123.5,765.5C 122.833,765.5 122.167,765.5 121.5,765.5C 120.955,763.407 120.122,761.407 119,759.5C 115.581,762.028 113.414,761.528 112.5,758C 115.692,752.863 117.192,753.363 117,759.5C 118.45,756.992 119.617,754.325 120.5,751.5C 121.878,749.787 123.545,748.453 125.5,747.5C 126.622,749.044 126.289,750.377 124.5,751.5C 204.146,753.526 283.813,753.526 363.5,751.5C 300.824,750.819 238.158,750.152 175.5,749.5C 161.519,750.429 147.519,750.763 133.5,750.5C 132.658,747.846 132.158,745.179 132,742.5C 133.667,741.5 135.333,740.5 137,739.5C 139.173,742.277 139.673,742.11 138.5,739C 140.037,737.89 140.703,736.39 140.5,734.5C 143.668,732.083 147.001,729.916 150.5,728C 155.681,722.652 161.015,717.485 166.5,712.5C 173.136,707.205 179.803,701.872 186.5,696.5C 194.531,686.64 203.031,677.307 212,668.5C 213.039,666.254 214.206,664.087 215.5,662C 214.906,661.536 214.239,661.369 213.5,661.5C 214.962,659.745 216.795,658.412 219,657.5C 219.658,655.892 219.158,654.725 217.5,654C 221.121,654.405 224.787,654.405 228.5,654C 226.715,652.837 224.715,652.17 222.5,652C 224.426,651.578 225.426,650.411 225.5,648.5C 228.682,647.406 231.682,646.072 234.5,644.5C 234.833,644.5 235.167,644.5 235.5,644.5C 242.532,643.647 249.198,641.647 255.5,638.5C 257.307,637.385 259.307,636.719 261.5,636.5C 264.611,638.185 267.944,638.685 271.5,638C 274.029,636.938 276.696,636.105 279.5,635.5C 280.077,633.45 281.41,632.45 283.5,632.5C 283.5,631.5 283.5,630.5 283.5,629.5C 280.87,630.428 278.204,631.428 275.5,632.5C 274.833,632.167 274.167,631.833 273.5,631.5C 274.193,630.482 274.859,629.482 275.5,628.5C 275.833,628.5 276.167,628.5 276.5,628.5C 279.579,626.98 282.912,626.147 286.5,626C 287.955,623.773 289.955,622.273 292.5,621.5C 294.591,621.682 296.591,621.348 298.5,620.5C 299.386,621.325 299.719,622.325 299.5,623.5C 301.167,623.5 302.833,623.5 304.5,623.5C 304.33,622.178 304.663,621.011 305.5,620C 307.473,619.505 309.473,619.338 311.5,619.5C 311.5,618.5 311.5,617.5 311.5,616.5C 309.653,616.766 308.986,616.432 309.5,615.5C 311.409,614.652 313.409,614.318 315.5,614.5C 315.74,611.421 315.407,608.421 314.5,605.5C 318.319,604.308 321.985,602.808 325.5,601C 323.171,598.263 320.504,598.096 317.5,600.5C 314.671,600.176 314.004,598.843 315.5,596.5C 318.872,595.731 321.705,594.065 324,591.5C 324.738,589.119 324.238,587.119 322.5,585.5C 322.351,584.448 322.517,583.448 323,582.5C 329.833,576 336.667,569.5 343.5,563C 343.167,562.667 342.833,562.333 342.5,562C 343.582,560.67 344.249,559.17 344.5,557.5C 344.557,556.391 344.89,555.391 345.5,554.5C 346.167,554.167 346.833,553.833 347.5,553.5C 351.908,550.261 354.408,545.927 355,540.5C 357.071,539.897 358.238,538.564 358.5,536.5C 359.376,536.631 360.043,536.298 360.5,535.5C 365.338,526.37 368.004,516.703 368.5,506.5C 369.481,508.396 370.481,510.396 371.5,512.5C 369.848,517.049 369.348,521.715 370,526.5C 371.011,527.337 372.178,527.67 373.5,527.5C 372.945,531.997 373.611,536.164 375.5,540C 375,540.5 374.5,541 374,541.5C 373.333,547.167 373.333,552.833 374,558.5C 374.333,553.167 374.667,547.833 375,542.5C 376.147,541.542 377.147,541.875 378,543.5C 378.333,548.167 378.667,552.833 379,557.5C 380.079,559.394 381.413,559.727 383,558.5C 384.159,553.202 384.993,547.869 385.5,542.5C 387.948,542.99 389.615,542.157 390.5,540C 389.704,537.715 388.371,535.881 386.5,534.5C 389.093,525.217 391.593,515.884 394,506.5C 399.617,493.922 404.117,480.922 407.5,467.5C 408.5,467.5 409.5,467.5 410.5,467.5C 410.61,462.378 411.944,457.712 414.5,453.5 Z"/></g>
<g><path style="opacity:1" fill="#c5678a" d="M 266.5,478.5 C 267.771,480.109 268.771,481.942 269.5,484C 270.793,484.49 272.127,484.657 273.5,484.5C 273.595,482.214 274.262,480.214 275.5,478.5C 275.5,480.5 275.5,482.5 275.5,484.5C 269.567,487.619 266.567,485.619 266.5,478.5 Z"/></g>
<g><path style="opacity:1" fill="#4788da" d="M 74.5,451.5 C 75.1667,451.5 75.8333,451.5 76.5,451.5C 90.8607,483.412 102.361,516.412 111,550.5C 111.894,565.559 111.394,580.559 109.5,595.5C 108.819,597.158 107.985,598.825 107,600.5C 106.536,599.906 106.369,599.239 106.5,598.5C 106.975,580.447 106.308,562.447 104.5,544.5C 97.0895,519.834 88.9229,495.501 80,471.5C 78.205,468.901 76.705,466.234 75.5,463.5C 73.5827,459.598 73.2493,455.598 74.5,451.5 Z"/></g>
<g><path style="opacity:1" fill="#d4587a" d="M 193.5,466.5 C 192.426,467.885 191.093,469.051 189.5,470C 190.406,471.699 190.739,473.533 190.5,475.5C 188.833,475.5 187.167,475.5 185.5,475.5C 185.5,476.5 185.5,477.5 185.5,478.5C 184.178,478.33 183.011,478.663 182,479.5C 179.137,489.626 177.971,499.96 178.5,510.5C 178.167,510.5 177.833,510.5 177.5,510.5C 176.512,505.36 176.179,500.026 176.5,494.5C 177.311,484.941 180.978,476.608 187.5,469.5C 189.216,467.975 191.216,466.975 193.5,466.5 Z"/></g>
<g><path style="opacity:1" fill="#71a9db" d="M 429.5,477.5 C 435.203,489.942 439.536,502.942 442.5,516.5C 440.454,515.641 439.121,514.141 438.5,512C 436.936,506.244 435.769,500.411 435,494.5C 432.003,489.181 430.169,483.515 429.5,477.5 Z"/></g>
<g><path style="opacity:1" fill="#4789dd" d="M 411.5,447.5 C 413.008,449.181 414.008,451.181 414.5,453.5C 411.944,457.712 410.61,462.378 410.5,467.5C 409.5,467.5 408.5,467.5 407.5,467.5C 404.117,480.922 399.617,493.922 394,506.5C 391.593,515.884 389.093,525.217 386.5,534.5C 384.132,536.956 383.132,539.956 383.5,543.5C 382.167,543.5 380.833,543.5 379.5,543.5C 379.716,538.399 380.55,533.399 382,528.5C 389.867,500.642 399.7,473.642 411.5,447.5 Z"/></g>
<g><path style="opacity:1" fill="#869cdf" d="M 175.5,494.5 C 175.334,501.508 175.5,508.508 176,515.5C 176.232,516.737 176.732,517.737 177.5,518.5C 178.59,522.442 180.257,526.109 182.5,529.5C 182.833,531.5 183.167,533.5 183.5,535.5C 180.909,534.746 179.076,533.079 178,530.5C 177.496,524.32 176.163,518.32 174,512.5C 173.333,506.833 173.333,501.167 174,495.5C 174.383,494.944 174.883,494.611 175.5,494.5 Z"/></g>
<g><path style="opacity:1" fill="#ae82ac" d="M 175.5,494.5 C 175.833,494.5 176.167,494.5 176.5,494.5C 176.179,500.026 176.512,505.36 177.5,510.5C 177.5,513.167 177.5,515.833 177.5,518.5C 176.732,517.737 176.232,516.737 176,515.5C 175.5,508.508 175.334,501.508 175.5,494.5 Z"/></g>
<g><path style="opacity:1" fill="#b16b9d" d="M 358.5,474.5 C 360.708,475.894 362.208,477.894 363,480.5C 365.068,484.96 366.234,489.627 366.5,494.5C 366.666,501.508 366.5,508.508 366,515.5C 364.647,520.139 362.813,524.472 360.5,528.5C 360.708,524.879 361.708,521.546 363.5,518.5C 364.563,508.527 364.729,498.527 364,488.5C 361.561,484.081 359.727,479.415 358.5,474.5 Z"/></g>
<g><path style="opacity:1" fill="#b15482" d="M 177.5,510.5 C 177.833,510.5 178.167,510.5 178.5,510.5C 179.001,517.004 180.334,523.337 182.5,529.5C 180.257,526.109 178.59,522.442 177.5,518.5C 177.5,515.833 177.5,513.167 177.5,510.5 Z"/></g>
<g><path style="opacity:1" fill="#7d95e3" d="M 366.5,494.5 C 368.423,498.029 369.089,502.029 368.5,506.5C 368.004,516.703 365.338,526.37 360.5,535.5C 360.043,536.298 359.376,536.631 358.5,536.5C 358.5,535.833 358.5,535.167 358.5,534.5C 358.614,532.282 359.28,530.282 360.5,528.5C 362.813,524.472 364.647,520.139 366,515.5C 366.5,508.508 366.666,501.508 366.5,494.5 Z"/></g>
<g><path style="opacity:1" fill="#ce506d" d="M 363.5,518.5 C 361.708,521.546 360.708,524.879 360.5,528.5C 359.28,530.282 358.614,532.282 358.5,534.5C 357.167,535.833 355.833,537.167 354.5,538.5C 357.447,533.254 359.281,527.587 360,521.5C 361.039,520.29 362.206,519.29 363.5,518.5 Z"/></g>
<g><path style="opacity:1" fill="#73a3d9" d="M 443.5,522.5 C 446.707,532.519 449.04,542.853 450.5,553.5C 449.065,552.21 448.065,550.544 447.5,548.5C 446.344,539.736 445.011,531.069 443.5,522.5 Z"/></g>
<g><path style="opacity:1" fill="#d44056" d="M 183.5,529.5 C 184.947,530.622 185.947,532.122 186.5,534C 188.441,534.743 190.274,534.576 192,533.5C 195.067,536.862 198.734,539.195 203,540.5C 203.606,543.076 203.106,545.41 201.5,547.5C 201.833,548.167 202.167,548.833 202.5,549.5C 204.544,548.02 205.878,548.52 206.5,551C 205.167,553 203.833,555 202.5,557C 202.836,558.03 203.503,558.53 204.5,558.5C 204.672,559.492 204.338,560.158 203.5,560.5C 200.892,557.552 198.225,554.552 195.5,551.5C 192.599,548.688 189.932,545.688 187.5,542.5C 187.662,540.473 187.495,538.473 187,536.5C 184.978,534.607 183.812,532.273 183.5,529.5 Z"/></g>
<g><path style="opacity:1" fill="#a572a2" d="M 182.5,529.5 C 182.833,529.5 183.167,529.5 183.5,529.5C 183.812,532.273 184.978,534.607 187,536.5C 187.495,538.473 187.662,540.473 187.5,542.5C 187.167,542.5 186.833,542.5 186.5,542.5C 185.957,539.962 184.957,537.628 183.5,535.5C 183.167,533.5 182.833,531.5 182.5,529.5 Z"/></g>
<g><path style="opacity:1" fill="#dd5358" d="M 251.5,547.5 C 254.776,542.059 254.109,537.226 249.5,533C 247.5,532.333 245.5,532.333 243.5,533C 235.7,540.762 226.7,547.095 216.5,552C 213.148,555.546 209.481,558.713 205.5,561.5C 204.508,561.672 203.842,561.338 203.5,560.5C 204.338,560.158 204.672,559.492 204.5,558.5C 205.5,558.5 206.5,558.5 207.5,558.5C 207.609,554.753 209.609,552.753 213.5,552.5C 214.76,550.647 214.76,548.814 213.5,547C 211.377,546.185 209.377,545.185 207.5,544C 210.053,543.239 212.553,542.406 215,541.5C 215.49,542.793 215.657,544.127 215.5,545.5C 219.49,545.001 223.49,544.501 227.5,544C 229.621,541.802 231.288,539.302 232.5,536.5C 236.35,535.851 239.35,534.018 241.5,531C 244.426,530.782 247.26,530.282 250,529.5C 254.688,534.217 256.522,539.884 255.5,546.5C 254.041,546.433 252.708,546.766 251.5,547.5 Z"/></g>
<g><path style="opacity:1" fill="#70a9df" d="M 43.5,507.5 C 43.6602,509.199 43.4935,510.866 43,512.5C 40.8497,516.777 38.8497,521.111 37,525.5C 35.5695,533.016 33.5695,540.349 31,547.5C 30.3292,548.252 29.4959,548.586 28.5,548.5C 32.133,534.261 37.133,520.595 43.5,507.5 Z"/></g>
<g><path style="opacity:1" fill="#b74672" d="M 353.5,542.5 C 352.281,546.046 350.281,549.046 347.5,551.5C 348.783,549.394 349.616,547.06 350,544.5C 350.816,543.177 351.983,542.511 353.5,542.5 Z"/></g>
<g><path style="opacity:1" fill="#a280b9" d="M 358.5,534.5 C 358.5,535.167 358.5,535.833 358.5,536.5C 358.238,538.564 357.071,539.897 355,540.5C 354.408,545.927 351.908,550.261 347.5,553.5C 347.5,552.833 347.5,552.167 347.5,551.5C 350.281,549.046 352.281,546.046 353.5,542.5C 353.433,541.041 353.766,539.708 354.5,538.5C 355.833,537.167 357.167,535.833 358.5,534.5 Z"/></g>
<g><path style="opacity:1" fill="#6dabe0" d="M 28.5,548.5 C 26.2371,555.629 25.0704,562.962 25,570.5C 22.5362,577.025 20.7029,583.691 19.5,590.5C 18.5041,590.414 17.6708,590.748 17,591.5C 16.79,593.058 16.29,594.391 15.5,595.5C 18.4402,579.36 22.7735,563.693 28.5,548.5 Z"/></g>
<g><path style="opacity:1" fill="#b35174" d="M 195.5,551.5 C 198.225,554.552 200.892,557.552 203.5,560.5C 203.842,561.338 204.508,561.672 205.5,561.5C 205.167,562.5 204.5,563.167 203.5,563.5C 202.564,562.026 201.23,561.026 199.5,560.5C 199.5,559.833 199.5,559.167 199.5,558.5C 197.295,556.637 195.961,554.303 195.5,551.5 Z"/></g>
<g><path style="opacity:1" fill="#9790d2" d="M 186.5,542.5 C 186.833,542.5 187.167,542.5 187.5,542.5C 189.932,545.688 192.599,548.688 195.5,551.5C 195.961,554.303 197.295,556.637 199.5,558.5C 197.856,558.714 196.356,558.38 195,557.5C 194.065,553.153 192.231,549.486 189.5,546.5C 188.5,546.5 187.5,546.5 186.5,546.5C 186.5,545.167 186.5,543.833 186.5,542.5 Z"/></g>
<g><path style="opacity:1" fill="#fbb99a" d="M 251.5,547.5 C 248.52,550.151 245.853,553.151 243.5,556.5C 238.398,559.755 233.398,563.255 228.5,567C 236.569,567.427 244.236,565.76 251.5,562C 256.191,559.992 260.524,557.492 264.5,554.5C 272.048,551.563 279.048,547.896 285.5,543.5C 290.129,542.519 294.796,542.352 299.5,543C 302.368,545.709 303.035,548.876 301.5,552.5C 286.525,562.649 271.192,572.149 255.5,581C 254.207,581.49 252.873,581.657 251.5,581.5C 251.5,582.833 251.5,584.167 251.5,585.5C 254.843,584.776 258.176,583.943 261.5,583C 271.721,578.437 281.721,573.604 291.5,568.5C 293.153,568.34 294.486,567.674 295.5,566.5C 299.963,564.071 304.797,562.738 310,562.5C 314.755,562.196 317.589,564.362 318.5,569C 318.357,571.151 317.357,572.818 315.5,574C 308.372,577.044 301.705,580.544 295.5,584.5C 286.679,587.571 278.013,591.237 269.5,595.5C 267.874,595.062 266.207,594.728 264.5,594.5C 260.67,597.383 256.337,599.216 251.5,600C 252.536,601.617 253.703,601.784 255,600.5C 256.215,603.617 258.548,605.284 262,605.5C 264.89,604.87 267.724,604.037 270.5,603C 271.337,601.989 271.67,600.822 271.5,599.5C 274.247,599.187 276.914,599.52 279.5,600.5C 282.236,603.31 285.403,603.976 289,602.5C 289.945,602.905 290.612,603.572 291,604.5C 291.711,602.633 291.211,601.133 289.5,600C 287.402,600.984 285.402,600.651 283.5,599C 284.337,597.989 284.67,596.822 284.5,595.5C 293.554,590.976 302.887,586.976 312.5,583.5C 314.642,585.473 316.975,587.139 319.5,588.5C 319.489,590.017 318.823,591.184 317.5,592C 315.779,592.739 314.113,593.573 312.5,594.5C 311.583,597.758 311.249,601.091 311.5,604.5C 307.483,607.24 303.483,610.073 299.5,613C 298.167,613.333 296.833,613.667 295.5,614C 292.688,616.941 289.688,619.441 286.5,621.5C 285.791,622.404 284.791,622.737 283.5,622.5C 277.318,623.591 271.984,626.258 267.5,630.5C 264.945,631.461 262.612,632.794 260.5,634.5C 259.609,635.11 258.609,635.443 257.5,635.5C 252.331,638.669 246.665,640.669 240.5,641.5C 231.866,643.54 223.199,645.706 214.5,648C 213.748,648.671 213.414,649.504 213.5,650.5C 211.833,650.5 210.167,650.5 208.5,650.5C 208.313,647.31 206.646,645.31 203.5,644.5C 202.833,643.5 202.167,642.5 201.5,641.5C 201.649,640.448 201.483,639.448 201,638.5C 197.334,633.838 194.167,628.838 191.5,623.5C 190.675,622.614 189.675,622.281 188.5,622.5C 187.833,622.167 187.167,621.833 186.5,621.5C 186.5,620.5 186.5,619.5 186.5,618.5C 185.488,614.949 184.155,611.449 182.5,608C 183.987,605.709 184.987,603.209 185.5,600.5C 189.006,594.821 192.006,588.821 194.5,582.5C 194.328,581.508 194.662,580.842 195.5,580.5C 198.937,578.164 200.604,574.83 200.5,570.5C 203.092,568.964 204.092,566.631 203.5,563.5C 204.5,563.167 205.167,562.5 205.5,561.5C 209.481,558.713 213.148,555.546 216.5,552C 226.7,547.095 235.7,540.762 243.5,533C 245.5,532.333 247.5,532.333 249.5,533C 254.109,537.226 254.776,542.059 251.5,547.5 Z"/></g>
<g><path style="opacity:1" fill="#b44d7c" d="M 345.5,554.5 C 344.89,555.391 344.557,556.391 344.5,557.5C 342.5,559.833 340.5,562.167 338.5,564.5C 338.983,559.789 341.316,556.456 345.5,554.5 Z"/></g>
<g><path style="opacity:1" fill="#da595a" d="M 264.5,554.5 C 260.524,557.492 256.191,559.992 251.5,562C 244.236,565.76 236.569,567.427 228.5,567C 233.398,563.255 238.398,559.755 243.5,556.5C 242.223,558.148 241.223,559.982 240.5,562C 241.5,562.167 242.5,562.333 243.5,562.5C 248.561,560.985 253.561,559.319 258.5,557.5C 258.5,556.5 258.5,555.5 258.5,554.5C 260.5,554.5 262.5,554.5 264.5,554.5 Z"/></g>
<g><path style="opacity:1" fill="#bcacc5" d="M 199.5,560.5 C 201.23,561.026 202.564,562.026 203.5,563.5C 204.092,566.631 203.092,568.964 200.5,570.5C 202.076,567.504 201.743,564.838 199.5,562.5C 199.5,561.833 199.5,561.167 199.5,560.5 Z"/></g>
<g><path style="opacity:1" fill="#dc575a" d="M 291.5,568.5 C 281.721,573.604 271.721,578.437 261.5,583C 258.176,583.943 254.843,584.776 251.5,585.5C 251.5,584.167 251.5,582.833 251.5,581.5C 252.873,581.657 254.207,581.49 255.5,581C 271.192,572.149 286.525,562.649 301.5,552.5C 303.035,548.876 302.368,545.709 299.5,543C 294.796,542.352 290.129,542.519 285.5,543.5C 288.06,539.715 291.727,537.715 296.5,537.5C 303.889,541.115 306.556,546.949 304.5,555C 303.167,555.333 301.833,555.667 300.5,556C 295.688,559.77 290.688,563.27 285.5,566.5C 283.618,567.093 281.785,567.76 280,568.5C 279.776,570.131 280.61,571.131 282.5,571.5C 285.359,569.949 288.359,568.949 291.5,568.5 Z"/></g>
<g><path style="opacity:1" fill="#9592d5" d="M 344.5,557.5 C 344.249,559.17 343.582,560.67 342.5,562C 342.833,562.333 343.167,562.667 343.5,563C 336.667,569.5 329.833,576 323,582.5C 322.517,583.448 322.351,584.448 322.5,585.5C 322.5,585.833 322.5,586.167 322.5,586.5C 321.833,586.5 321.167,586.5 320.5,586.5C 320.5,585.5 320.5,584.5 320.5,583.5C 323.527,579.806 326.86,576.473 330.5,573.5C 333.851,571.146 336.518,568.146 338.5,564.5C 340.5,562.167 342.5,559.833 344.5,557.5 Z"/></g>
<g><path style="opacity:1" fill="#c4476b" d="M 338.5,564.5 C 336.518,568.146 333.851,571.146 330.5,573.5C 326.392,575.404 322.725,578.07 319.5,581.5C 319.5,581.167 319.5,580.833 319.5,580.5C 321.17,577.998 323.336,575.998 326,574.5C 326.273,572.899 326.773,571.399 327.5,570C 331.277,568.39 334.944,566.557 338.5,564.5 Z"/></g>
<g><path style="opacity:1" fill="#5aa5f9" d="M 75.5,463.5 C 76.705,466.234 78.205,468.901 80,471.5C 88.9229,495.501 97.0895,519.834 104.5,544.5C 106.308,562.447 106.975,580.447 106.5,598.5C 103.107,599.939 101.44,602.606 101.5,606.5C 101.631,607.239 101.464,607.906 101,608.5C 99.7798,603.435 98.2798,598.435 96.5,593.5C 96.7028,591.792 97.5362,590.459 99,589.5C 99.2294,583.071 100.063,576.737 101.5,570.5C 99.8636,564.962 100.197,559.629 102.5,554.5C 101.54,548.749 100.706,542.749 100,536.5C 98.4002,535.134 96.5668,534.134 94.5,533.5C 95.3256,532.549 95.4922,531.549 95,530.5C 93.4152,531.376 92.4152,532.709 92,534.5C 92.2571,530.243 91.9237,525.91 91,521.5C 90.3012,526.281 89.8012,526.447 89.5,522C 91.8242,517.566 91.4908,513.233 88.5,509C 88.8198,507.347 89.8198,506.347 91.5,506C 90.5305,504.242 89.3639,503.742 88,504.5C 86.1153,502.98 83.9486,501.98 81.5,501.5C 80.443,499.997 79.7763,498.33 79.5,496.5C 80.9301,494.614 82.5968,492.947 84.5,491.5C 83.3862,488.298 81.7196,485.465 79.5,483C 78.8333,482.333 78.1667,482.333 77.5,483C 77.7447,485.649 78.4114,488.482 79.5,491.5C 79.2811,493.915 77.9477,494.915 75.5,494.5C 75.8077,489.158 76.141,483.992 76.5,479C 75.552,478.517 74.552,478.351 73.5,478.5C 72.1856,475.836 70.8523,473.169 69.5,470.5C 69.6668,468.022 70.6668,466.022 72.5,464.5C 72.4211,466.666 71.7545,468.666 70.5,470.5C 70.5565,471.737 71.0565,472.737 72,473.5C 74.014,470.47 75.1806,467.137 75.5,463.5 Z"/></g>
<g><path style="opacity:1" fill="#d0c7cd" d="M 200.5,570.5 C 200.604,574.83 198.937,578.164 195.5,580.5C 196.332,576.691 197.999,573.357 200.5,570.5 Z"/></g>
<g><path style="opacity:1" fill="#a95685" d="M 330.5,573.5 C 326.86,576.473 323.527,579.806 320.5,583.5C 319.833,583.5 319.5,583.167 319.5,582.5C 319.5,582.167 319.5,581.833 319.5,581.5C 322.725,578.07 326.392,575.404 330.5,573.5 Z"/></g>
<g><path style="opacity:1" fill="#d35356" d="M 319.5,580.5 C 319.5,580.833 319.5,581.167 319.5,581.5C 319.5,581.833 319.5,582.167 319.5,582.5C 312.344,581.288 305.677,582.621 299.5,586.5C 297.517,586.843 296.183,586.176 295.5,584.5C 301.705,580.544 308.372,577.044 315.5,574C 317.357,572.818 318.357,571.151 318.5,569C 317.589,564.362 314.755,562.196 310,562.5C 304.797,562.738 299.963,564.071 295.5,566.5C 296.287,564.896 297.62,564.229 299.5,564.5C 299.5,563.5 299.5,562.5 299.5,561.5C 313.197,556.811 320.53,561.311 321.5,575C 320.57,575.991 319.404,576.491 318,576.5C 314.512,575.794 311.345,576.794 308.5,579.5C 312.107,580.489 315.774,580.823 319.5,580.5 Z"/></g>
<g><path style="opacity:1" fill="#e06b65" d="M 295.5,584.5 C 296.183,586.176 297.517,586.843 299.5,586.5C 288.037,591.94 276.37,597.106 264.5,602C 262.421,602.808 260.421,602.641 258.5,601.5C 262.02,599.115 265.686,597.115 269.5,595.5C 278.013,591.237 286.679,587.571 295.5,584.5 Z"/></g>
<g><path style="opacity:1" fill="#bebac2" d="M 320.5,586.5 C 321.167,586.5 321.833,586.5 322.5,586.5C 322.66,588.199 322.494,589.866 322,591.5C 319,593.167 316,594.833 313,596.5C 313.083,599.119 313.25,601.786 313.5,604.5C 312.833,604.5 312.167,604.5 311.5,604.5C 311.249,601.091 311.583,597.758 312.5,594.5C 314.113,593.573 315.779,592.739 317.5,592C 318.823,591.184 319.489,590.017 319.5,588.5C 319.833,587.833 320.167,587.167 320.5,586.5 Z"/></g>
<g><path style="opacity:1" fill="#b0b5d1" d="M 194.5,582.5 C 192.006,588.821 189.006,594.821 185.5,600.5C 181.624,604.05 180.624,608.384 182.5,613.5C 179.864,610.739 179.031,607.406 180,603.5C 184.993,598.486 188.327,592.486 190,585.5C 191.615,584.614 193.115,583.614 194.5,582.5 Z"/></g>
<g><path style="opacity:1" fill="#fdaf9b" d="M 319.5,582.5 C 319.5,583.167 319.833,583.5 320.5,583.5C 320.5,584.5 320.5,585.5 320.5,586.5C 320.167,587.167 319.833,587.833 319.5,588.5C 316.975,587.139 314.642,585.473 312.5,583.5C 302.887,586.976 293.554,590.976 284.5,595.5C 284.67,596.822 284.337,597.989 283.5,599C 285.402,600.651 287.402,600.984 289.5,600C 291.211,601.133 291.711,602.633 291,604.5C 290.612,603.572 289.945,602.905 289,602.5C 285.403,603.976 282.236,603.31 279.5,600.5C 276.914,599.52 274.247,599.187 271.5,599.5C 271.67,600.822 271.337,601.989 270.5,603C 267.724,604.037 264.89,604.87 262,605.5C 258.548,605.284 256.215,603.617 255,600.5C 253.703,601.784 252.536,601.617 251.5,600C 256.337,599.216 260.67,597.383 264.5,594.5C 266.207,594.728 267.874,595.062 269.5,595.5C 265.686,597.115 262.02,599.115 258.5,601.5C 260.421,602.641 262.421,602.808 264.5,602C 276.37,597.106 288.037,591.94 299.5,586.5C 305.677,582.621 312.344,581.288 319.5,582.5 Z"/></g>
<g><path style="opacity:1" fill="#60a6f2" d="M 199.5,562.5 C 201.743,564.838 202.076,567.504 200.5,570.5C 197.999,573.357 196.332,576.691 195.5,580.5C 194.662,580.842 194.328,581.508 194.5,582.5C 193.115,583.614 191.615,584.614 190,585.5C 188.327,592.486 184.993,598.486 180,603.5C 179.031,607.406 179.864,610.739 182.5,613.5C 183.08,615.749 184.413,617.415 186.5,618.5C 186.5,619.5 186.5,620.5 186.5,621.5C 183.262,615.852 181.262,616.185 180.5,622.5C 179.5,622.5 178.5,622.5 177.5,622.5C 177.296,619.455 177.296,616.621 177.5,614C 176.552,613.517 175.552,613.351 174.5,613.5C 174.41,615.696 174.077,617.863 173.5,620C 173.316,621.376 172.649,622.209 171.5,622.5C 170.84,621.036 170.507,619.369 170.5,617.5C 170.699,614.252 171.699,611.419 173.5,609C 173.031,607.113 172.031,605.613 170.5,604.5C 173.32,601.459 174.653,597.793 174.5,593.5C 177.5,593.833 178.833,592.5 178.5,589.5C 181.652,588.959 184.152,589.959 186,592.5C 187.092,589.956 187.759,587.289 188,584.5C 189.333,583.833 190.667,583.167 192,582.5C 191.277,576.581 190.777,570.248 190.5,563.5C 191.5,563.5 192.5,563.5 193.5,563.5C 193.15,566.856 193.983,569.856 196,572.5C 197.692,569.224 198.859,565.891 199.5,562.5 Z"/></g>
<g><path style="opacity:1" fill="#6ba7e5" d="M 450.5,555.5 C 455.98,582.791 459.646,610.458 461.5,638.5C 459.917,636.492 458.917,634.159 458.5,631.5C 458.829,625.794 458.495,620.128 457.5,614.5C 456.914,614.291 456.414,613.957 456,613.5C 455.667,605.167 455.333,596.833 455,588.5C 451.649,577.822 450.149,566.822 450.5,555.5 Z"/></g>
<g><path style="opacity:1" fill="#64a6eb" d="M 109.5,595.5 C 109.264,610.009 108.597,624.343 107.5,638.5C 107.667,627.495 107.5,616.495 107,605.5C 103.075,618.205 100.242,631.205 98.5,644.5C 101.607,643.447 104.607,642.114 107.5,640.5C 107.762,641.978 107.429,643.311 106.5,644.5C 103.911,646.157 101.244,646.491 98.5,645.5C 97.1087,643.075 95.442,640.909 93.5,639C 94.0585,638.275 94.3918,637.442 94.5,636.5C 93.706,632.451 92.706,628.451 91.5,624.5C 91.156,621.528 92.156,619.194 94.5,617.5C 95.2436,618.991 95.9103,620.491 96.5,622C 95.0851,625.111 95.5851,627.945 98,630.5C 101.682,622.754 102.849,614.754 101.5,606.5C 101.44,602.606 103.107,599.939 106.5,598.5C 106.369,599.239 106.536,599.906 107,600.5C 107.985,598.825 108.819,597.158 109.5,595.5 Z"/></g>
<g><path style="opacity:1" fill="#dfc3bd" d="M 185.5,600.5 C 184.987,603.209 183.987,605.709 182.5,608C 184.155,611.449 185.488,614.949 186.5,618.5C 184.413,617.415 183.08,615.749 182.5,613.5C 180.624,608.384 181.624,604.05 185.5,600.5 Z"/></g>
<g><path style="opacity:1" fill="#4f8be4" d="M 453.5,717.5 C 456.5,717.5 459.5,717.5 462.5,717.5C 462.5,733.5 462.5,749.5 462.5,765.5C 462.167,765.5 461.833,765.5 461.5,765.5C 461.5,755.167 461.5,744.833 461.5,734.5C 459.833,734.5 458.167,734.5 456.5,734.5C 456.5,737.167 456.5,739.833 456.5,742.5C 455.5,742.5 454.5,742.5 453.5,742.5C 453.18,745.898 453.513,749.232 454.5,752.5C 455.315,750.724 456.482,750.057 458,750.5C 458.498,753.817 458.665,757.15 458.5,760.5C 432.842,761.325 407.176,761.658 381.5,761.5C 381.5,760.833 381.5,760.167 381.5,759.5C 381.167,697.83 381.5,636.163 382.5,574.5C 390.116,586.731 396.949,599.397 403,612.5C 406.919,622.164 409.919,632.164 412,642.5C 413.419,662.181 414.919,681.847 416.5,701.5C 420.178,700.414 423.845,700.414 427.5,701.5C 432.932,706.076 438.432,710.743 444,715.5C 447.026,716.872 450.193,717.538 453.5,717.5 Z"/></g>
<g><path style="opacity:1" fill="#dbbeb6" d="M 311.5,604.5 C 311.141,606.371 310.141,607.871 308.5,609C 305.06,610.614 302.06,612.78 299.5,615.5C 295.489,618.249 291.156,620.249 286.5,621.5C 289.688,619.441 292.688,616.941 295.5,614C 296.833,613.667 298.167,613.333 299.5,613C 303.483,610.073 307.483,607.24 311.5,604.5 Z"/></g>
<g><path style="opacity:1" fill="#80a2d3" d="M 311.5,604.5 C 312.167,604.5 312.833,604.5 313.5,604.5C 313.822,606.722 313.155,608.556 311.5,610C 308.977,610.518 306.977,611.852 305.5,614C 303.482,614.505 301.482,615.005 299.5,615.5C 302.06,612.78 305.06,610.614 308.5,609C 310.141,607.871 311.141,606.371 311.5,604.5 Z"/></g>
<g><path style="opacity:1" fill="#59a8f7" d="M 19.5,590.5 C 21.1172,591.038 22.7839,591.371 24.5,591.5C 24.5,596.5 24.5,601.5 24.5,606.5C 23.1667,606.5 21.8333,606.5 20.5,606.5C 20.8747,609.397 20.3747,612.063 19,614.5C 18.6667,613.167 18.3333,611.833 18,610.5C 16.0863,613.298 15.0863,616.298 15,619.5C 17.305,618.061 19.1384,618.561 20.5,621C 17.7216,622.392 14.7216,622.892 11.5,622.5C 11.5,619.833 11.5,617.167 11.5,614.5C 12.0725,607.893 13.4058,601.56 15.5,595.5C 16.29,594.391 16.79,593.058 17,591.5C 17.6708,590.748 18.5041,590.414 19.5,590.5 Z"/></g>
<g><path style="opacity:1" fill="#61a5f4" d="M 322.5,585.5 C 324.238,587.119 324.738,589.119 324,591.5C 321.705,594.065 318.872,595.731 315.5,596.5C 314.004,598.843 314.671,600.176 317.5,600.5C 320.504,598.096 323.171,598.263 325.5,601C 321.985,602.808 318.319,604.308 314.5,605.5C 315.407,608.421 315.74,611.421 315.5,614.5C 313.409,614.318 311.409,614.652 309.5,615.5C 308.986,616.432 309.653,616.766 311.5,616.5C 311.5,617.5 311.5,618.5 311.5,619.5C 309.473,619.338 307.473,619.505 305.5,620C 304.663,621.011 304.33,622.178 304.5,623.5C 302.833,623.5 301.167,623.5 299.5,623.5C 299.719,622.325 299.386,621.325 298.5,620.5C 296.591,621.348 294.591,621.682 292.5,621.5C 294.019,620.59 295.685,619.757 297.5,619C 298.823,618.184 299.489,617.017 299.5,615.5C 301.482,615.005 303.482,614.505 305.5,614C 306.977,611.852 308.977,610.518 311.5,610C 313.155,608.556 313.822,606.722 313.5,604.5C 313.25,601.786 313.083,599.119 313,596.5C 316,594.833 319,593.167 322,591.5C 322.494,589.866 322.66,588.199 322.5,586.5C 322.5,586.167 322.5,585.833 322.5,585.5 Z"/></g>
<g><path style="opacity:1" fill="#81a2d4" d="M 299.5,615.5 C 299.489,617.017 298.823,618.184 297.5,619C 295.685,619.757 294.019,620.59 292.5,621.5C 289.955,622.273 287.955,623.773 286.5,626C 282.912,626.147 279.579,626.98 276.5,628.5C 278.914,626.498 281.248,624.498 283.5,622.5C 284.791,622.737 285.791,622.404 286.5,621.5C 291.156,620.249 295.489,618.249 299.5,615.5 Z"/></g>
<g><path style="opacity:1" fill="#74a9de" d="M 11.5,614.5 C 11.5,617.167 11.5,619.833 11.5,622.5C 5.33891,648.35 2.33891,674.683 2.5,701.5C 2.17536,713.262 3.00869,724.929 5,736.5C 6.73118,741.632 9.23118,746.299 12.5,750.5C 12.8333,751.833 13.1667,753.167 13.5,754.5C 5.21444,745.573 1.04778,734.906 1,722.5C -0.356962,685.895 3.14304,649.895 11.5,614.5 Z"/></g>
<g><path style="opacity:1" fill="#5ca3f8" d="M 186.5,621.5 C 185.972,625.21 186.972,628.377 189.5,631C 187.541,633.294 187.207,635.794 188.5,638.5C 189.429,637.311 189.762,635.978 189.5,634.5C 191.167,634.5 192.833,634.5 194.5,634.5C 196.101,638.35 198.268,642.016 201,645.5C 202.129,647.141 203.629,648.141 205.5,648.5C 205.643,650.262 205.309,651.929 204.5,653.5C 207.446,654.655 210.446,654.821 213.5,654C 217.372,651.898 221.372,650.064 225.5,648.5C 225.426,650.411 224.426,651.578 222.5,652C 224.715,652.17 226.715,652.837 228.5,654C 224.787,654.405 221.121,654.405 217.5,654C 219.158,654.725 219.658,655.892 219,657.5C 216.795,658.412 214.962,659.745 213.5,661.5C 207.558,665.773 202.224,670.773 197.5,676.5C 195.926,677.631 194.259,677.798 192.5,677C 188.333,673.5 184.167,670 180,666.5C 177.415,661.416 173.915,657.083 169.5,653.5C 165.269,646.722 160.769,640.056 156,633.5C 155.187,629.225 153.354,625.558 150.5,622.5C 152.451,622.773 153.951,622.107 155,620.5C 157.256,622.014 158.756,624.014 159.5,626.5C 160.5,626.5 161.5,626.5 162.5,626.5C 161.746,622.581 163.08,621.247 166.5,622.5C 167.821,625.769 169.488,625.769 171.5,622.5C 172.649,622.209 173.316,621.376 173.5,620C 174.077,617.863 174.41,615.696 174.5,613.5C 175.552,613.351 176.552,613.517 177.5,614C 177.296,616.621 177.296,619.455 177.5,622.5C 178.5,622.5 179.5,622.5 180.5,622.5C 181.262,616.185 183.262,615.852 186.5,621.5 Z"/></g>
<g><path style="opacity:1" fill="#dec4ad" d="M 283.5,622.5 C 281.248,624.498 278.914,626.498 276.5,628.5C 276.167,628.5 275.833,628.5 275.5,628.5C 274.391,628.557 273.391,628.89 272.5,629.5C 270.883,630.038 269.216,630.371 267.5,630.5C 271.984,626.258 277.318,623.591 283.5,622.5 Z"/></g>
<g><path style="opacity:1" fill="#e0c3c4" d="M 188.5,622.5 C 189.675,622.281 190.675,622.614 191.5,623.5C 194.167,628.838 197.334,633.838 201,638.5C 201.483,639.448 201.649,640.448 201.5,641.5C 196.418,635.739 192.085,629.405 188.5,622.5 Z"/></g>
<g><path style="opacity:1" fill="#a6adc3" d="M 272.5,629.5 C 268.936,631.919 264.936,633.586 260.5,634.5C 262.612,632.794 264.945,631.461 267.5,630.5C 269.216,630.371 270.883,630.038 272.5,629.5 Z"/></g>
<g><path style="opacity:1" fill="#7da3e1" d="M 186.5,621.5 C 187.167,621.833 187.833,622.167 188.5,622.5C 192.085,629.405 196.418,635.739 201.5,641.5C 202.167,642.5 202.833,643.5 203.5,644.5C 203.733,646.062 204.4,647.395 205.5,648.5C 203.629,648.141 202.129,647.141 201,645.5C 198.268,642.016 196.101,638.35 194.5,634.5C 192.833,634.5 191.167,634.5 189.5,634.5C 189.762,635.978 189.429,637.311 188.5,638.5C 187.207,635.794 187.541,633.294 189.5,631C 186.972,628.377 185.972,625.21 186.5,621.5 Z"/></g>
<g><path style="opacity:1" fill="#63a4ee" d="M 275.5,628.5 C 274.859,629.482 274.193,630.482 273.5,631.5C 274.167,631.833 274.833,632.167 275.5,632.5C 278.204,631.428 280.87,630.428 283.5,629.5C 283.5,630.5 283.5,631.5 283.5,632.5C 281.41,632.45 280.077,633.45 279.5,635.5C 276.696,636.105 274.029,636.938 271.5,638C 267.944,638.685 264.611,638.185 261.5,636.5C 259.307,636.719 257.307,637.385 255.5,638.5C 256.167,637.5 256.833,636.5 257.5,635.5C 258.609,635.443 259.609,635.11 260.5,634.5C 264.936,633.586 268.936,631.919 272.5,629.5C 273.391,628.89 274.391,628.557 275.5,628.5 Z"/></g>
<g><path style="opacity:1" fill="#81a3ce" d="M 257.5,635.5 C 256.833,636.5 256.167,637.5 255.5,638.5C 249.198,641.647 242.532,643.647 235.5,644.5C 236.913,643.065 238.58,642.065 240.5,641.5C 246.665,640.669 252.331,638.669 257.5,635.5 Z"/></g>
<g><path style="opacity:1" fill="#d9c3b6" d="M 240.5,641.5 C 238.58,642.065 236.913,643.065 235.5,644.5C 235.167,644.5 234.833,644.5 234.5,644.5C 227.5,646.5 220.5,648.5 213.5,650.5C 213.414,649.504 213.748,648.671 214.5,648C 223.199,645.706 231.866,643.54 240.5,641.5 Z"/></g>
<g><path style="opacity:1" fill="#d9bfc8" d="M 203.5,644.5 C 206.646,645.31 208.313,647.31 208.5,650.5C 210.167,650.5 211.833,650.5 213.5,650.5C 210.238,652.179 207.571,651.512 205.5,648.5C 204.4,647.395 203.733,646.062 203.5,644.5 Z"/></g>
<g><path style="opacity:1" fill="#7da4d7" d="M 234.5,644.5 C 231.682,646.072 228.682,647.406 225.5,648.5C 221.372,650.064 217.372,651.898 213.5,654C 210.446,654.821 207.446,654.655 204.5,653.5C 205.309,651.929 205.643,650.262 205.5,648.5C 207.571,651.512 210.238,652.179 213.5,650.5C 220.5,648.5 227.5,646.5 234.5,644.5 Z"/></g>
<g><path style="opacity:1" fill="#4d8adb" d="M 150.5,622.5 C 153.354,625.558 155.187,629.225 156,633.5C 160.769,640.056 165.269,646.722 169.5,653.5C 173.915,657.083 177.415,661.416 180,666.5C 184.167,670 188.333,673.5 192.5,677C 194.259,677.798 195.926,677.631 197.5,676.5C 202.224,670.773 207.558,665.773 213.5,661.5C 214.239,661.369 214.906,661.536 215.5,662C 214.206,664.087 213.039,666.254 212,668.5C 203.031,677.307 194.531,686.64 186.5,696.5C 179.803,701.872 173.136,707.205 166.5,712.5C 161.015,717.485 155.681,722.652 150.5,728C 147.001,729.916 143.668,732.083 140.5,734.5C 131.149,740.6 121.649,746.6 112,752.5C 110.322,751.534 109.655,750.201 110,748.5C 129.427,736.721 147.594,723.388 164.5,708.5C 170.073,703.613 175.74,698.779 181.5,694C 184.769,690.538 187.769,686.871 190.5,683C 184.394,676.564 177.894,670.397 171,664.5C 160.835,651.519 152.168,637.519 145,622.5C 143.851,619.607 143.351,616.607 143.5,613.5C 144.833,613.5 146.167,613.5 147.5,613.5C 148.213,616.594 149.213,619.594 150.5,622.5 Z"/></g>
<g><path style="opacity:1" fill="#498adb" d="M 79.5,655.5 C 81.9272,656.279 81.9272,657.446 79.5,659C 68.7649,666.026 58.4316,673.526 48.5,681.5C 45.516,684.985 42.3493,688.318 39,691.5C 38.5172,692.448 38.3505,693.448 38.5,694.5C 34.8622,695.263 33.3622,693.93 34,690.5C 44.9508,676.218 58.7841,665.718 75.5,659C 77.0931,658.051 78.4264,656.885 79.5,655.5 Z"/></g>
<g><path style="opacity:1" fill="#5ca5f6" d="M 458.5,631.5 C 458.917,634.159 459.917,636.492 461.5,638.5C 461.833,638.5 462.167,638.5 462.5,638.5C 462.5,664.833 462.5,691.167 462.5,717.5C 459.5,717.5 456.5,717.5 453.5,717.5C 452.194,716.533 451.527,715.199 451.5,713.5C 450.325,713.719 449.325,713.386 448.5,712.5C 450.489,710.676 452.323,708.676 454,706.5C 455.612,706.952 456.612,708.285 457,710.5C 457.9,709.23 459.066,708.23 460.5,707.5C 458.623,706.94 456.623,705.773 454.5,704C 456.025,702.991 457.692,702.491 459.5,702.5C 459.26,695.416 459.927,688.416 461.5,681.5C 460.833,674.833 460.167,668.167 459.5,661.5C 460.333,656.511 460.5,651.511 460,646.5C 459.667,648.833 459.333,651.167 459,653.5C 457.374,653.854 455.541,653.854 453.5,653.5C 453.5,651.167 453.5,648.833 453.5,646.5C 454.833,646.5 456.167,646.5 457.5,646.5C 457.916,641.507 458.249,636.507 458.5,631.5 Z"/></g>
<g><path style="opacity:1" fill="#58a5f9" d="M 164.5,708.5 C 147.594,723.388 129.427,736.721 110,748.5C 109.655,750.201 110.322,751.534 112,752.5C 121.649,746.6 131.149,740.6 140.5,734.5C 140.703,736.39 140.037,737.89 138.5,739C 139.673,742.11 139.173,742.277 137,739.5C 135.333,740.5 133.667,741.5 132,742.5C 132.158,745.179 132.658,747.846 133.5,750.5C 147.519,750.763 161.519,750.429 175.5,749.5C 238.158,750.152 300.824,750.819 363.5,751.5C 283.813,753.526 204.146,753.526 124.5,751.5C 126.289,750.377 126.622,749.044 125.5,747.5C 123.545,748.453 121.878,749.787 120.5,751.5C 119.617,754.325 118.45,756.992 117,759.5C 117.192,753.363 115.692,752.863 112.5,758C 113.414,761.528 115.581,762.028 119,759.5C 120.122,761.407 120.955,763.407 121.5,765.5C 117.167,765.5 112.833,765.5 108.5,765.5C 108.666,761.486 108.499,757.486 108,753.5C 107.586,753.043 107.086,752.709 106.5,752.5C 96.6136,756.67 86.9469,761.004 77.5,765.5C 71.5,765.5 65.5,765.5 59.5,765.5C 59.5,764.5 59.5,763.5 59.5,762.5C 64.4708,762.502 68.8041,761.502 72.5,759.5C 73.8544,761.184 75.5211,761.684 77.5,761C 75.6316,760.101 74.6316,758.601 74.5,756.5C 75.5622,753.034 77.2289,752.7 79.5,755.5C 78.7542,756.736 78.4208,758.07 78.5,759.5C 86.6674,759.03 94.3341,756.863 101.5,753C 102.337,751.989 102.67,750.822 102.5,749.5C 106.37,748.232 110.037,746.398 113.5,744C 114.518,740.888 116.352,738.388 119,736.5C 124.616,735.752 129.449,732.918 133.5,728C 135.218,727.654 136.885,727.154 138.5,726.5C 141.561,723.101 144.894,720.101 148.5,717.5C 149.115,715.884 150.115,714.551 151.5,713.5C 149.993,712.261 148.826,712.595 148,714.5C 147.833,714 147.667,713.5 147.5,713C 149.225,710.114 149.892,706.948 149.5,703.5C 151.262,703.643 152.929,703.309 154.5,702.5C 155.262,703.628 155.929,704.795 156.5,706C 159.31,706.782 161.977,707.616 164.5,708.5 Z"/></g>
<g><path style="opacity:1" fill="#65a6ef" d="M 27.5,765.5 C 26.5,765.5 25.5,765.5 24.5,765.5C 20.2096,762.509 16.543,758.842 13.5,754.5C 13.1667,753.167 12.8333,751.833 12.5,750.5C 15.888,751.619 18.7213,753.619 21,756.5C 21.4962,754.965 21.3295,753.465 20.5,752C 22.1667,748.667 23.8333,748.667 25.5,752C 24.8333,753.333 24.1667,754.667 23.5,756C 25.0076,759.171 26.341,762.338 27.5,765.5 Z"/></g>
<g><path style="opacity:1" fill="#58a6f8" d="M 371.5,761.5 C 368.603,761.125 365.937,761.625 363.5,763C 283.494,763.786 203.494,763.619 123.5,762.5C 123.804,761.85 124.137,761.183 124.5,760.5C 129.467,759.671 134.467,759.171 139.5,759C 214.169,758.167 288.836,758.333 363.5,759.5C 366.306,760.168 368.972,760.834 371.5,761.5 Z"/></g>
<g><path style="opacity:1" fill="#578fdd" d="M 461.5,765.5 C 434.5,765.5 407.5,765.5 380.5,765.5C 380.833,764.167 381.167,762.833 381.5,761.5C 407.176,761.658 432.842,761.325 458.5,760.5C 458.665,757.15 458.498,753.817 458,750.5C 456.482,750.057 455.315,750.724 454.5,752.5C 453.513,749.232 453.18,745.898 453.5,742.5C 454.5,742.5 455.5,742.5 456.5,742.5C 456.5,739.833 456.5,737.167 456.5,734.5C 458.167,734.5 459.833,734.5 461.5,734.5C 461.5,744.833 461.5,755.167 461.5,765.5 Z"/></g>
<g><path style="opacity:1" fill="#66a2f2" d="M 381.5,759.5 C 381.5,760.167 381.5,760.833 381.5,761.5C 381.167,762.833 380.833,764.167 380.5,765.5C 294.833,765.5 209.167,765.5 123.5,765.5C 123.5,764.5 123.5,763.5 123.5,762.5C 203.494,763.619 283.494,763.786 363.5,763C 365.937,761.625 368.603,761.125 371.5,761.5C 375.085,761.848 378.418,761.181 381.5,759.5 Z"/></g>
</svg>
