<?xml version="1.0" encoding="UTF-8"?>
<!DOCTYPE svg PUBLIC "-//W3C//DTD SVG 1.1//EN" "http://www.w3.org/Graphics/SVG/1.1/DTD/svg11.dtd">
<svg xmlns="http://www.w3.org/2000/svg" version="1.1" width="1016px" height="256px" style="shape-rendering:geometricPrecision; text-rendering:geometricPrecision; image-rendering:optimizeQuality; fill-rule:evenodd; clip-rule:evenodd" xmlns:xlink="http://www.w3.org/1999/xlink">
<g><path style="opacity:0.931" fill="#ebb438" d="M 187.5,11.5 C 126.833,11.5 66.1667,11.5 5.5,11.5C 5.5,18.8333 5.5,26.1667 5.5,33.5C 5.16667,33.5 4.83333,33.5 4.5,33.5C 4.5,23.5 4.5,13.5 4.5,3.5C 65.5,3.5 126.5,3.5 187.5,3.5C 187.5,6.16667 187.5,8.83333 187.5,11.5 Z"/></g>
<g><path style="opacity:1" fill="#e2704f" d="M 187.5,11.5 C 127.336,12.4991 67.0023,12.8324 6.5,12.5C 6.5,19.5 6.5,26.5 6.5,33.5C 6.16667,33.5 5.83333,33.5 5.5,33.5C 5.5,26.1667 5.5,18.8333 5.5,11.5C 66.1667,11.5 126.833,11.5 187.5,11.5 Z"/></g>
<g><path style="opacity:0.994" fill="#db3165" d="M 187.5,11.5 C 188.833,21.8333 188.833,32.1667 187.5,42.5C 164.006,41.5024 140.339,41.1691 116.5,41.5C 116.5,45.1667 116.5,48.8333 116.5,52.5C 116.832,114.336 116.499,176.002 115.5,237.5C 103.167,237.5 90.8333,237.5 78.5,237.5C 78.8064,234.615 78.4731,231.948 77.5,229.5C 77.5,166.833 77.5,104.167 77.5,41.5C 53.8333,41.5 30.1667,41.5 6.5,41.5C 6.5,38.8333 6.5,36.1667 6.5,33.5C 6.5,26.5 6.5,19.5 6.5,12.5C 67.0023,12.8324 127.336,12.4991 187.5,11.5 Z"/></g>
<g><path style="opacity:0.939" fill="#ebb438" d="M 576.5,21.5 C 564.291,25.6244 551.958,29.4578 539.5,33C 538.544,36.3936 538.211,39.8936 538.5,43.5C 538.167,43.5 537.833,43.5 537.5,43.5C 537.5,37.1667 537.5,30.8333 537.5,24.5C 550.271,21.2434 562.938,17.5768 575.5,13.5C 576.48,16.0865 576.813,18.7531 576.5,21.5 Z"/></g>
<g><path style="opacity:0.991" fill="#da3165" d="M 576.5,21.5 C 577.496,35.3234 577.829,49.3234 577.5,63.5C 576.527,65.9479 576.194,68.6146 576.5,71.5C 590.833,71.5 605.167,71.5 619.5,71.5C 620.586,71.62 621.253,72.2867 621.5,73.5C 620.498,82.8808 619.498,92.2141 618.5,101.5C 604.5,101.5 590.5,101.5 576.5,101.5C 576.187,105.042 576.521,108.375 577.5,111.5C 577.5,137.833 577.5,164.167 577.5,190.5C 579.069,206.713 588.069,213.713 604.5,211.5C 611.402,211.886 618.069,210.886 624.5,208.5C 625.833,217.833 625.833,227.167 624.5,236.5C 609.087,240.247 593.421,241.413 577.5,240C 556.229,235.729 543.729,222.896 540,201.5C 539.462,196.829 538.962,192.162 538.5,187.5C 538.5,158.833 538.5,130.167 538.5,101.5C 530.5,101.5 522.5,101.5 514.5,101.5C 514.5,98.8333 514.5,96.1667 514.5,93.5C 514.5,86.1667 514.5,78.8333 514.5,71.5C 522.5,71.5 530.5,71.5 538.5,71.5C 538.5,62.1667 538.5,52.8333 538.5,43.5C 538.211,39.8936 538.544,36.3936 539.5,33C 551.958,29.4578 564.291,25.6244 576.5,21.5 Z"/></g>
<g><path style="opacity:0.917" fill="#54b4be" d="M 4.5,33.5 C 4.83333,33.5 5.16667,33.5 5.5,33.5C 5.5,36.5 5.5,39.5 5.5,42.5C 29.1667,42.5 52.8333,42.5 76.5,42.5C 76.5,45.8333 76.5,49.1667 76.5,52.5C 52.5,52.5 28.5,52.5 4.5,52.5C 4.5,46.1667 4.5,39.8333 4.5,33.5 Z"/></g>
<g><path style="opacity:1" fill="#989e8c" d="M 5.5,33.5 C 5.83333,33.5 6.16667,33.5 6.5,33.5C 6.5,36.1667 6.5,38.8333 6.5,41.5C 30.1667,41.5 53.8333,41.5 77.5,41.5C 77.5,104.167 77.5,166.833 77.5,229.5C 77.1667,229.5 76.8333,229.5 76.5,229.5C 76.5,170.5 76.5,111.5 76.5,52.5C 76.5,49.1667 76.5,45.8333 76.5,42.5C 52.8333,42.5 29.1667,42.5 5.5,42.5C 5.5,39.5 5.5,36.5 5.5,33.5 Z"/></g>
<g><path style="opacity:0.918" fill="#58b2bc" d="M 187.5,42.5 C 187.5,45.8333 187.5,49.1667 187.5,52.5C 163.833,52.5 140.167,52.5 116.5,52.5C 116.5,48.8333 116.5,45.1667 116.5,41.5C 140.339,41.1691 164.006,41.5024 187.5,42.5 Z"/></g>
<g><path style="opacity:0.959" fill="#ebb239" d="M 326.5,115.5 C 317.045,88.565 298.045,73.065 269.5,69C 201.861,63.4718 169.194,94.6385 171.5,162.5C 170.833,159.5 170.167,156.5 169.5,153.5C 169.073,81.7677 204.407,51.2677 275.5,62C 304.312,68.6436 321.312,86.477 326.5,115.5 Z"/></g>
<g><path style="opacity:0.958" fill="#ebb239" d="M 477.5,74.5 C 452.469,68.3999 427.135,66.8999 401.5,70C 387.069,71.9619 375.235,78.4619 366,89.5C 360.218,98.348 358.051,108.015 359.5,118.5C 358.833,118.5 358.5,118.167 358.5,117.5C 354.169,94.6023 362.169,77.769 382.5,67C 413.795,57.0997 445.128,57.0997 476.5,67C 477.435,69.3806 477.768,71.8806 477.5,74.5 Z"/></g>
<g><path style="opacity:0.957" fill="#ebb239" d="M 804.5,117.5 C 794.9,88.7552 774.9,72.5885 744.5,69C 680.33,63.6716 648.33,93.1716 648.5,157.5C 648.167,157.5 647.833,157.5 647.5,157.5C 643.888,86.2777 677.555,54.1111 748.5,61C 780.77,66.4364 799.437,85.2698 804.5,117.5 Z"/></g>
<g><path style="opacity:0.966" fill="#ebb238" d="M 1006.5,122.5 C 996.186,89.3875 973.519,71.5542 938.5,69C 913.782,65.3514 890.449,69.3514 868.5,81C 849.598,94.9539 839.098,113.787 837,137.5C 836.5,144.158 836.334,150.825 836.5,157.5C 836.167,157.5 835.833,157.5 835.5,157.5C 831.337,87.5408 864.337,55.0408 934.5,60C 960.947,61.1338 981.78,72.3005 997,93.5C 1002.27,102.491 1005.44,112.158 1006.5,122.5 Z"/></g>
<g><path style="opacity:1" fill="#e8b43c" d="M 537.5,43.5 C 537.833,43.5 538.167,43.5 538.5,43.5C 538.5,52.8333 538.5,62.1667 538.5,71.5C 530.5,71.5 522.5,71.5 514.5,71.5C 514.5,78.8333 514.5,86.1667 514.5,93.5C 513.833,89.5 513.167,85.5 512.5,81.5C 512.5,75.5 512.5,69.5 512.5,63.5C 520.833,63.5 529.167,63.5 537.5,63.5C 537.5,56.8333 537.5,50.1667 537.5,43.5 Z"/></g>
<g><path style="opacity:0.996" fill="#ebb438" d="M 577.5,63.5 C 591.833,63.5 606.167,63.5 620.5,63.5C 620.167,66.1667 619.833,68.8333 619.5,71.5C 605.167,71.5 590.833,71.5 576.5,71.5C 576.194,68.6146 576.527,65.9479 577.5,63.5 Z"/></g>
<g><path style="opacity:0.999" fill="#da3165" d="M 326.5,115.5 C 327.647,120.642 328.48,125.975 329,131.5C 329.827,144.34 329.66,157.007 328.5,169.5C 288.5,169.5 248.5,169.5 208.5,169.5C 208.5,170.833 208.5,172.167 208.5,173.5C 210.803,192.305 221.136,204.138 239.5,209C 260.878,212.515 282.211,212.182 303.5,208C 308.772,206.61 313.772,204.777 318.5,202.5C 319.833,212.167 319.833,221.833 318.5,231.5C 291.846,240.526 264.512,243.026 236.5,239C 194.888,230.548 173.221,205.048 171.5,162.5C 169.194,94.6385 201.861,63.4718 269.5,69C 298.045,73.065 317.045,88.565 326.5,115.5 Z M 293.5,136.5 C 265.167,136.5 236.833,136.5 208.5,136.5C 211.16,121.673 219.826,112.506 234.5,109C 245.839,107.028 257.172,107.028 268.5,109C 283.289,112.289 291.622,121.456 293.5,136.5 Z"/></g>
<g><path style="opacity:0.999" fill="#da3166" d="M 477.5,74.5 C 478.819,85.5981 478.819,96.5981 477.5,107.5C 453.637,98.7946 429.304,97.2946 404.5,103C 400.296,105.238 397.963,108.738 397.5,113.5C 397.278,119.005 399.278,123.505 403.5,127C 420.721,134.519 438.388,140.852 456.5,146C 467.895,150.273 477.395,157.107 485,166.5C 486.546,169.592 488.046,172.592 489.5,175.5C 491.648,185.065 491.981,194.732 490.5,204.5C 482.75,225.083 467.75,236.583 445.5,239C 423.071,241.436 400.737,240.769 378.5,237C 373.35,236.006 368.35,234.506 363.5,232.5C 362.52,229.914 362.187,227.247 362.5,224.5C 363.167,216.833 363.833,209.167 364.5,201.5C 391.124,210.134 418.124,211.634 445.5,206C 452.236,201.33 454.236,195.163 451.5,187.5C 449.743,182.575 446.41,179.075 441.5,177C 425.306,170.935 408.972,165.269 392.5,160C 377.438,154.935 366.938,145.102 361,130.5C 359.844,126.582 359.344,122.582 359.5,118.5C 358.051,108.015 360.218,98.348 366,89.5C 375.235,78.4619 387.069,71.9619 401.5,70C 427.135,66.8999 452.469,68.3999 477.5,74.5 Z"/></g>
<g><path style="opacity:0.999" fill="#da3165" d="M 804.5,117.5 C 806.677,134.923 807.011,152.257 805.5,169.5C 765.494,169.167 725.494,169.5 685.5,170.5C 686.309,172.071 686.643,173.738 686.5,175.5C 688.55,192.097 697.55,202.93 713.5,208C 740.81,213.579 767.81,212.245 794.5,204C 795.056,203.617 795.389,203.117 795.5,202.5C 796.833,212.167 796.833,221.833 795.5,231.5C 771.867,239.829 747.534,242.662 722.5,240C 673.842,234.169 649.176,206.669 648.5,157.5C 648.33,93.1716 680.33,63.6716 744.5,69C 774.9,72.5885 794.9,88.7552 804.5,117.5 Z M 770.5,136.5 C 742.5,136.5 714.5,136.5 686.5,136.5C 689.126,121.705 697.793,112.538 712.5,109C 723.833,107 735.167,107 746.5,109C 760.712,112.714 768.712,121.88 770.5,136.5 Z"/></g>
<g><path style="opacity:1" fill="#da3166" d="M 1006.5,122.5 C 1010.29,139.647 1010.96,156.981 1008.5,174.5C 1003.71,211.13 983.039,232.63 946.5,239C 928.457,241.165 910.457,240.832 892.5,238C 862.668,230.502 844.835,211.669 839,181.5C 837.556,173.557 836.722,165.557 836.5,157.5C 836.334,150.825 836.5,144.158 837,137.5C 839.098,113.787 849.598,94.9539 868.5,81C 890.449,69.3514 913.782,65.3514 938.5,69C 973.519,71.5542 996.186,89.3875 1006.5,122.5 Z M 969.5,153.5 C 969.385,185.115 953.552,200.782 922,200.5C 899.173,202.202 884.007,192.536 876.5,171.5C 875.653,162.528 875.32,153.528 875.5,144.5C 879.604,125.564 891.27,114.731 910.5,112C 923.516,110.447 936.183,111.781 948.5,116C 958.44,121.279 964.607,129.445 967,140.5C 967.917,144.862 968.751,149.195 969.5,153.5 Z"/></g>
<g><path style="opacity:0.966" fill="#5ab1bb" d="M 294.5,126.5 C 294.813,130.042 294.479,133.375 293.5,136.5C 291.622,121.456 283.289,112.289 268.5,109C 257.172,107.028 245.839,107.028 234.5,109C 219.826,112.506 211.16,121.673 208.5,136.5C 208.167,136.5 207.833,136.5 207.5,136.5C 208.409,113.161 220.409,99.9945 243.5,97C 256.75,95.464 269.417,97.464 281.5,103C 289.606,108.709 293.939,116.542 294.5,126.5 Z M 293.5,136.5 C 265.167,136.5 236.833,136.5 208.5,136.5C 211.16,121.673 219.826,112.506 234.5,109C 245.839,107.028 257.172,107.028 268.5,109C 283.289,112.289 291.622,121.456 293.5,136.5 Z"/></g>
<g><path style="opacity:0.961" fill="#59b1bb" d="M 771.5,123.5 C 771.818,128.032 771.485,132.366 770.5,136.5C 768.712,121.88 760.712,112.714 746.5,109C 735.167,107 723.833,107 712.5,109C 697.793,112.538 689.126,121.705 686.5,136.5C 686.167,136.5 685.833,136.5 685.5,136.5C 685.195,116.597 694.528,103.764 713.5,98C 727.757,95.4464 741.757,96.4464 755.5,101C 764.654,105.816 769.987,113.316 771.5,123.5 Z M 770.5,136.5 C 742.5,136.5 714.5,136.5 686.5,136.5C 689.126,121.705 697.793,112.538 712.5,109C 723.833,107 735.167,107 746.5,109C 760.712,112.714 768.712,121.88 770.5,136.5 Z"/></g>
<g><path style="opacity:0.973" fill="#56b3bc" d="M 477.5,107.5 C 477.5,110.833 477.5,114.167 477.5,117.5C 456.328,110.449 434.661,108.283 412.5,111C 407.824,111.603 403.824,113.436 400.5,116.5C 399.272,115.694 398.272,114.694 397.5,113.5C 397.963,108.738 400.296,105.238 404.5,103C 429.304,97.2946 453.637,98.7946 477.5,107.5 Z"/></g>
<g><path style="opacity:0.975" fill="#75b4ab" d="M 512.5,81.5 C 513.167,85.5 513.833,89.5 514.5,93.5C 514.5,96.1667 514.5,98.8333 514.5,101.5C 522.5,101.5 530.5,101.5 538.5,101.5C 538.5,130.167 538.5,158.833 538.5,187.5C 538.167,187.5 537.833,187.5 537.5,187.5C 537.5,162.167 537.5,136.833 537.5,111.5C 529.167,111.5 520.833,111.5 512.5,111.5C 512.5,101.5 512.5,91.5 512.5,81.5 Z"/></g>
<g><path style="opacity:0.967" fill="#55b4bd" d="M 618.5,101.5 C 618.784,104.777 618.451,107.943 617.5,111C 604.171,111.5 590.837,111.667 577.5,111.5C 576.521,108.375 576.187,105.042 576.5,101.5C 590.5,101.5 604.5,101.5 618.5,101.5 Z"/></g>
<g><path style="opacity:0.966" fill="#5ab2bb" d="M 970.5,143.5 C 970.813,147.042 970.479,150.375 969.5,153.5C 968.751,149.195 967.917,144.862 967,140.5C 964.607,129.445 958.44,121.279 948.5,116C 936.183,111.781 923.516,110.447 910.5,112C 891.27,114.731 879.604,125.564 875.5,144.5C 876.705,115.462 891.872,100.796 921,100.5C 951.729,98.7412 968.229,113.075 970.5,143.5 Z"/></g>
<g><path style="opacity:0.963" fill="#ebb239" d="M 397.5,113.5 C 398.272,114.694 399.272,115.694 400.5,116.5C 404.694,119.765 409.361,122.265 414.5,124C 432.612,129.148 450.279,135.481 467.5,143C 480.595,149.929 487.929,160.763 489.5,175.5C 488.046,172.592 486.546,169.592 485,166.5C 477.395,157.107 467.895,150.273 456.5,146C 438.388,140.852 420.721,134.519 403.5,127C 399.278,123.505 397.278,119.005 397.5,113.5 Z"/></g>
<g><path style="opacity:0.97" fill="#56b3bc" d="M 358.5,117.5 C 358.5,118.167 358.833,118.5 359.5,118.5C 359.344,122.582 359.844,126.582 361,130.5C 366.938,145.102 377.438,154.935 392.5,160C 408.972,165.269 425.306,170.935 441.5,177C 446.41,179.075 449.743,182.575 451.5,187.5C 451.539,190.089 450.539,192.089 448.5,193.5C 445.883,190.853 442.883,188.686 439.5,187C 421.5,180.667 403.5,174.333 385.5,168C 363.76,157.927 354.76,141.094 358.5,117.5 Z"/></g>
<g><path style="opacity:0.97" fill="#ebb438" d="M 294.5,126.5 C 295.49,132.31 295.823,138.31 295.5,144.5C 266.167,144.5 236.833,144.5 207.5,144.5C 207.5,141.833 207.5,139.167 207.5,136.5C 207.833,136.5 208.167,136.5 208.5,136.5C 236.833,136.5 265.167,136.5 293.5,136.5C 294.479,133.375 294.813,130.042 294.5,126.5 Z"/></g>
<g><path style="opacity:0.97" fill="#ebb438" d="M 771.5,123.5 C 772.491,130.313 772.825,137.313 772.5,144.5C 743.5,144.5 714.5,144.5 685.5,144.5C 685.5,141.833 685.5,139.167 685.5,136.5C 685.833,136.5 686.167,136.5 686.5,136.5C 714.5,136.5 742.5,136.5 770.5,136.5C 771.485,132.366 771.818,128.032 771.5,123.5 Z"/></g>
<g><path style="opacity:1" fill="#df545a" d="M 685.5,136.5 C 685.5,139.167 685.5,141.833 685.5,144.5C 714.5,144.5 743.5,144.5 772.5,144.5C 743.338,145.498 714.005,145.831 684.5,145.5C 684.19,142.287 684.523,139.287 685.5,136.5 Z"/></g>
<g><path style="opacity:0.97" fill="#ebb13a" d="M 970.5,143.5 C 972.047,157.235 970.88,170.901 967,184.5C 961.897,196.314 953.063,203.814 940.5,207C 930.218,208.536 919.885,208.87 909.5,208C 888.991,204.508 877.991,192.341 876.5,171.5C 884.007,192.536 899.173,202.202 922,200.5C 953.552,200.782 969.385,185.115 969.5,153.5C 970.479,150.375 970.813,147.042 970.5,143.5 Z"/></g>
<g><path style="opacity:0.96" fill="#59b2bc" d="M 647.5,157.5 C 647.833,157.5 648.167,157.5 648.5,157.5C 649.176,206.669 673.842,234.169 722.5,240C 747.534,242.662 771.867,239.829 795.5,231.5C 795.789,235.106 795.456,238.606 794.5,242C 765.751,252.123 736.418,254.123 706.5,248C 674.029,240.528 654.862,220.361 649,187.5C 647.705,177.545 647.205,167.545 647.5,157.5 Z"/></g>
<g><path style="opacity:0.961" fill="#58b2bc" d="M 835.5,157.5 C 835.833,157.5 836.167,157.5 836.5,157.5C 836.722,165.557 837.556,173.557 839,181.5C 844.835,211.669 862.668,230.502 892.5,238C 910.457,240.832 928.457,241.165 946.5,239C 983.039,232.63 1003.71,211.13 1008.5,174.5C 1005.91,223.142 980.248,248.642 931.5,251C 864.939,254.942 832.939,223.775 835.5,157.5 Z"/></g>
<g><path style="opacity:0.959" fill="#58b2bc" d="M 169.5,153.5 C 170.167,156.5 170.833,159.5 171.5,162.5C 173.221,205.048 194.888,230.548 236.5,239C 264.512,243.026 291.846,240.526 318.5,231.5C 318.789,235.106 318.456,238.606 317.5,242C 283.721,253.802 249.721,254.468 215.5,244C 189.683,232.5 174.85,212.667 171,184.5C 169.819,174.2 169.319,163.867 169.5,153.5 Z"/></g>
<g><path style="opacity:1" fill="#54b5bd" d="M 328.5,169.5 C 328.5,172.833 328.5,176.167 328.5,179.5C 289.833,179.5 251.167,179.5 212.5,179.5C 210.626,177.918 209.293,175.918 208.5,173.5C 208.5,172.167 208.5,170.833 208.5,169.5C 248.5,169.5 288.5,169.5 328.5,169.5 Z"/></g>
<g><path style="opacity:0.999" fill="#54b4bd" d="M 805.5,169.5 C 805.5,172.833 805.5,176.167 805.5,179.5C 766.833,179.5 728.167,179.5 689.5,179.5C 688.143,178.41 687.143,177.076 686.5,175.5C 686.643,173.738 686.309,172.071 685.5,170.5C 725.494,169.5 765.494,169.167 805.5,169.5 Z"/></g>
<g><path style="opacity:0.976" fill="#ebb338" d="M 208.5,173.5 C 209.293,175.918 210.626,177.918 212.5,179.5C 216.656,188.815 223.656,195.315 233.5,199C 262.134,205.986 290.301,204.486 318,194.5C 318.497,197.146 318.664,199.813 318.5,202.5C 313.772,204.777 308.772,206.61 303.5,208C 282.211,212.182 260.878,212.515 239.5,209C 221.136,204.138 210.803,192.305 208.5,173.5 Z"/></g>
<g><path style="opacity:0.97" fill="#ebb338" d="M 686.5,175.5 C 687.143,177.076 688.143,178.41 689.5,179.5C 694.621,190.084 702.954,196.918 714.5,200C 741.913,205.914 768.747,204.081 795,194.5C 795.497,197.146 795.664,199.813 795.5,202.5C 795.389,203.117 795.056,203.617 794.5,204C 767.81,212.245 740.81,213.579 713.5,208C 697.55,202.93 688.55,192.097 686.5,175.5 Z"/></g>
<g><path style="opacity:0.972" fill="#eab339" d="M 451.5,187.5 C 454.236,195.163 452.236,201.33 445.5,206C 418.124,211.634 391.124,210.134 364.5,201.5C 364.44,200.957 364.107,200.624 363.5,200.5C 362.502,208.472 362.169,216.472 362.5,224.5C 362.167,224.5 361.833,224.5 361.5,224.5C 361.5,213.833 361.5,203.167 361.5,192.5C 385.933,200.543 410.933,203.043 436.5,200C 441.565,199.605 445.565,197.438 448.5,193.5C 450.539,192.089 451.539,190.089 451.5,187.5 Z"/></g>
<g><path style="opacity:0.953" fill="#59b2bb" d="M 537.5,187.5 C 537.833,187.5 538.167,187.5 538.5,187.5C 538.962,192.162 539.462,196.829 540,201.5C 543.729,222.896 556.229,235.729 577.5,240C 593.421,241.413 609.087,240.247 624.5,236.5C 624.5,239.833 624.5,243.167 624.5,246.5C 604.534,252.84 584.534,253.007 564.5,247C 548.148,238.965 539.315,225.798 538,207.5C 537.5,200.842 537.334,194.175 537.5,187.5 Z"/></g>
<g><path style="opacity:0.959" fill="#ebb338" d="M 577.5,190.5 C 583.187,200.596 592.021,204.93 604,203.5C 610.928,203.081 617.761,202.081 624.5,200.5C 624.5,203.167 624.5,205.833 624.5,208.5C 618.069,210.886 611.402,211.886 604.5,211.5C 588.069,213.713 579.069,206.713 577.5,190.5 Z"/></g>
<g><path style="opacity:1" fill="#e26553" d="M 364.5,201.5 C 363.833,209.167 363.167,216.833 362.5,224.5C 362.169,216.472 362.502,208.472 363.5,200.5C 364.107,200.624 364.44,200.957 364.5,201.5 Z"/></g>
<g><path style="opacity:0.961" fill="#57b2bc" d="M 490.5,204.5 C 488.909,226.927 477.243,241.094 455.5,247C 423.909,253.481 392.576,252.315 361.5,243.5C 361.5,237.167 361.5,230.833 361.5,224.5C 361.833,224.5 362.167,224.5 362.5,224.5C 362.187,227.247 362.52,229.914 363.5,232.5C 368.35,234.506 373.35,236.006 378.5,237C 400.737,240.769 423.071,241.436 445.5,239C 467.75,236.583 482.75,225.083 490.5,204.5 Z"/></g>
<g><path style="opacity:0.969" fill="#56b3bd" d="M 76.5,229.5 C 76.8333,229.5 77.1667,229.5 77.5,229.5C 78.4731,231.948 78.8064,234.615 78.5,237.5C 90.8333,237.5 103.167,237.5 115.5,237.5C 115.5,240.833 115.5,244.167 115.5,247.5C 102.5,247.5 89.5,247.5 76.5,247.5C 76.5,241.5 76.5,235.5 76.5,229.5 Z"/></g>
</svg>
