<?xml version="1.0" encoding="utf-8"?>
<!DOCTYPE svg PUBLIC "-//W3C//DTD SVG 1.0//EN" "http://www.w3.org/TR/2001/REC-SVG-20010904/DTD/svg10.dtd">
<svg version="1.0" xmlns="http://www.w3.org/2000/svg" width="760px" height="745px" viewBox="0 0 760 745" preserveAspectRatio="xMidYMid meet">
 <g fill="#341f43">
  <path d="M191.6 299.9 c-0.3 -1.7 -0.6 -36.2 -0.6 -76.5 0 -64.6 -0.2 -73.4 -1.5 -73.4 -0.8 0 -1.5 -0.7 -1.5 -1.5 0 -1.3 11.5 -1.5 97.5 -1.5 l97.5 0 -0.2 77.8 -0.3 77.7 -95.1 0.3 -95.1 0.2 -0.7 -3.1z"/>
 </g>
 <g fill="#db3469">
  <path d="M194.7 596.7 l-2.7 -2.2 0 -143.5 c0 -78.9 0 -145.2 0 -147.2 l0 -3.8 93.6 0 c92.7 0 93.6 0 94.1 -2 0.3 -1.1 1.2 -2 1.9 -2 1.2 0 1.4 22.8 1.2 151.3 l-0.3 151.2 -92.5 0.2 -92.5 0.3 -2.8 -2.3z"/>
  <path d="M380 152.1 l0 -2.1 -189.2 -0.2 -189.3 -0.3 -0.3 -73.7 -0.2 -73.8 46.2 0 c474 -0.2 521.1 0 523.5 1.5 l2.3 1.5 0 74 0 74 -93.4 0 c-51.3 0 -94.8 0.3 -96.5 0.6 -2.7 0.6 -3.1 0.4 -3.1 -1.5z"/>
 </g>
 <g fill="#57b5be">
  <path d="M380 742.7 l-2.5 -1.3 -0.3 -72.3 c-0.2 -63.6 0 -72.5 1.3 -73.5 1.3 -1 1.5 -26.5 1.8 -223.1 l0.2 -222 94.8 -0.3 c83.2 -0.2 94.7 -0.4 94.7 -1.7 0 -1.3 11 -1.5 91.8 -1.5 l91.8 0 2.7 2.8 2.7 2.8 0 72.1 c0 43.1 -0.4 72.4 -0.9 72.8 -0.5 0.3 -43 0.5 -94.4 0.5 -76.9 0 -93.7 0.3 -94.6 1.4 -0.8 0.9 -1.2 61.9 -1.3 222.7 l-0.3 221.4 -92.5 0.2 c-73.1 0.2 -93 0 -95 -1z"/>
 </g>
 <g fill="#ecb439">
  <path d="M373.4 738.3 c-3.2 -2.7 -8.1 -6.4 -10.8 -8.3 -2.6 -1.9 -5.6 -4.3 -6.7 -5.2 -1 -1 -12.3 -10.1 -25.1 -20.3 -12.8 -10.2 -26.8 -21.3 -31.1 -24.8 -4.3 -3.4 -10.2 -8 -13 -10.3 -31.3 -24.7 -41 -32.3 -45.3 -35.8 -2.9 -2.3 -7.5 -5.9 -10.4 -8.1 -2.8 -2.2 -10 -7.8 -15.8 -12.5 -5.9 -4.7 -12.5 -9.8 -14.6 -11.5 -2.1 -1.6 -4.7 -3.7 -5.7 -4.5 -1.7 -1.3 8.3 -1.5 91.6 -1.5 l93.5 0 0 73.8 c0 40.5 -0.1 73.7 -0.3 73.7 -0.2 0 -3 -2.1 -6.3 -4.7z"/>
  <path d="M570 76.4 l0 -73.5 2.8 1.9 c2.5 1.9 11.2 8.7 49.8 39.3 16.8 13.2 72.4 57 110.7 87.2 12.5 9.8 22.7 18 22.7 18.3 0 0.2 -41.8 0.4 -93 0.4 l-93 0 0 -73.6z"/>
 </g>
</svg>